<svg width="32" height="32" viewBox="0 0 32 32" fill="none" xmlns="http://www.w3.org/2000/svg">
<path d="M3.74622 6.92795C3.68697 5.2242 5.01422 3.6532 6.80847 3.6532H25.1935C26.9877 3.6532 28.315 5.2242 28.2557 6.92795C28.1987 8.56445 28.2727 10.6844 28.8062 12.4129C29.3415 14.1469 30.244 15.2427 31.7222 15.3837V16.9804C30.244 17.1214 29.3415 18.2172 28.8062 19.9512C28.2727 21.6797 28.1987 23.7997 28.2557 25.4362C28.315 27.1399 26.9877 28.7107 25.1935 28.7107H6.80847C5.01422 28.7107 3.68697 27.1397 3.74622 25.4362C3.80322 23.7997 3.72922 21.6797 3.19547 19.9512C2.66047 18.2174 1.75547 17.1214 0.277222 16.9804V15.3837C1.75547 15.2429 2.66047 14.1469 3.19547 12.4129C3.72922 10.6844 3.80297 8.56445 3.74622 6.92795Z" fill="url(#paint0_linear_72_5)"/>
<g filter="url(#filter0_d_72_5)">
<path d="M16.7775 22.9341C19.6822 22.9341 21.4326 21.5119 21.4326 19.166C21.4326 17.3928 20.1837 16.109 18.3292 15.9058V15.8319C19.6917 15.6102 20.7609 14.345 20.7609 12.9319C20.7609 10.9186 19.1713 9.60706 16.7491 9.60706H11.2991V22.9341H16.7775ZM13.4186 11.2972H16.2382C17.771 11.2972 18.6414 11.9806 18.6414 13.2182C18.6414 14.5389 17.6291 15.2777 15.7935 15.2777H13.4186V11.2972ZM13.4186 21.244V16.857H16.2192C18.2251 16.857 19.2659 17.5959 19.2659 19.0367C19.2659 20.4774 18.2535 21.244 16.3422 21.244H13.4186Z" fill="url(#paint1_linear_72_5)"/>
</g>
<defs>
<filter id="filter0_d_72_5" x="10.3165" y="8.87008" width="12.0988" height="15.2923" filterUnits="userSpaceOnUse" color-interpolation-filters="sRGB">
<feFlood flood-opacity="0" result="BackgroundImageFix"/>
<feColorMatrix in="SourceAlpha" type="matrix" values="0 0 0 0 0 0 0 0 0 0 0 0 0 0 0 0 0 0 127 0" result="hardAlpha"/>
<feOffset dy="0.24566"/>
<feGaussianBlur stdDeviation="0.49132"/>
<feColorMatrix type="matrix" values="0 0 0 0 0 0 0 0 0 0 0 0 0 0 0 0 0 0 0.15 0"/>
<feBlend mode="normal" in2="BackgroundImageFix" result="effect1_dropShadow_72_5"/>
<feBlend mode="normal" in="SourceGraphic" in2="effect1_dropShadow_72_5" result="shape"/>
</filter>
<linearGradient id="paint0_linear_72_5" x1="4.94986" y1="4.31636" x2="32.427" y2="26.128" gradientUnits="userSpaceOnUse">
<stop stop-color="#9013FE"/>
<stop offset="1" stop-color="#6610F2"/>
</linearGradient>
<linearGradient id="paint1_linear_72_5" x1="12.2579" y1="10.4841" x2="18.3994" y2="20.8712" gradientUnits="userSpaceOnUse">
<stop stop-color="white"/>
<stop offset="1" stop-color="#F1E5FC"/>
</linearGradient>
</defs>
</svg>
