<svg width="32" height="32" viewBox="0 0 32 32" fill="none" xmlns="http://www.w3.org/2000/svg">
<path d="M16 2C8.26588 2 2 8.26588 2 16C2 23.7341 8.26588 30 16 30C23.7341 30 30 23.7341 30 16C30 8.26588 23.7341 2 16 2ZM10.1209 10.96C11.0003 10.96 11.6845 11.6014 11.7615 12.3591C11.8446 13.0425 11.5611 13.6401 10.8051 13.9997C10.4035 14.2001 10.2443 14.2001 10.162 14.0811C10.1209 13.9998 10.162 13.9228 10.2434 13.8396C10.9644 13.2438 10.9644 12.7608 10.8812 12.0818C10.8401 11.6399 10.5216 11.3607 10.2022 11.3607C8.79875 11.3607 6.80288 14.4784 7.08025 16.7613C7.20363 17.6406 7.72337 18.6801 8.83987 18.6801C9.20037 18.6801 9.602 18.5611 9.96075 18.4028C10.5444 18.0921 10.8953 17.8559 11.2418 17.4682C11.1551 16.4331 12.0616 15.0804 13.4012 15.0804C14.0032 15.0804 14.4819 15.3219 14.5221 15.7637C14.6 16.3614 14.0802 16.4428 13.921 16.4428C13.7617 16.4428 13.4791 16.4016 13.4791 16.2424C13.4433 16.0823 13.8387 16.161 13.802 15.8005C13.7609 15.559 13.5194 15.482 13.2831 15.482C12.4396 15.482 11.961 16.644 12.08 17.3589C12.1211 17.6817 12.2795 18.002 12.6041 18.002C12.8413 18.002 13.2017 17.6415 13.319 17.1226C13.4004 16.7621 13.7206 16.5206 14.0024 16.5206C14.1214 16.5206 14.1984 16.5617 14.2395 16.721V16.8811C14.2036 17.0412 14.0794 17.5242 14.1214 17.6415C14.1214 17.7246 14.1625 17.8419 14.3209 17.8419C14.4259 17.8419 14.8275 17.6319 15.2283 17.3037C15.3604 16.6151 15.5196 15.7909 15.5196 15.7226C15.5608 15.44 15.6798 15.1617 16.2398 15.1617C16.3623 15.1617 16.4401 15.2029 16.4812 15.3621V15.5223L16.3211 16.2424C16.8418 15.5634 17.6021 15.0848 18.0808 15.0848C18.2811 15.0848 18.4413 15.2029 18.4413 15.4032C18.4413 15.5222 18.4412 15.7226 18.3581 15.9239C18.1997 16.3614 17.9985 17.0447 17.8795 17.6415C17.8795 17.8016 17.9206 17.9609 18.121 17.9609C18.3214 17.9609 18.919 17.7238 19.3976 17.0815L19.4072 17.0771C19.4072 16.9993 19.3976 16.9222 19.3976 16.8452C19.3976 16.3622 19.4388 15.9659 19.521 15.6832C19.6024 15.3639 19.9996 15.0856 20.2411 15.0856C20.3593 15.0856 20.4826 15.1626 20.4826 15.2816C20.4826 15.3227 20.4826 15.4041 20.4415 15.4418C20.2814 15.9659 20.158 16.4436 20.158 16.9223C20.158 17.2049 20.2 17.6013 20.2814 17.8428C20.2814 17.8839 20.3173 17.9241 20.3584 17.9241C20.4415 17.9241 21.0015 17.4052 21.3979 16.721C21.0374 16.4839 20.837 16.0831 20.837 15.6045C20.837 14.7619 21.362 14.3235 21.8406 14.3235C22.2422 14.3235 22.5607 14.6026 22.5607 15.1626C22.5607 15.5231 22.4418 15.9247 22.2423 16.2835H22.3604C22.6159 16.2931 22.867 16.1881 23.0394 16.0061C23.0775 15.9453 23.1334 15.8976 23.1995 15.8696C23.5915 15.3726 24.1655 15.0043 24.8445 15.0043C25.4045 15.0043 25.9199 15.2457 25.961 15.6832C26.0424 16.2844 25.5191 16.4034 25.359 16.4034C25.2006 16.4034 24.918 16.3623 24.918 16.203C24.918 16.0438 25.2776 16.1216 25.2409 15.7655C25.1998 15.524 24.9582 15.4426 24.7167 15.4426C23.9187 15.4426 23.3999 16.4812 23.5171 17.3247C23.5582 17.6432 23.7175 18.0038 24.0378 18.0038C24.2793 18.0038 24.6389 17.6432 24.7981 17.1244C24.8751 16.8059 25.1997 16.5224 25.4771 16.5224C25.5996 16.5224 25.6775 16.5635 25.7186 16.7228C25.7186 16.8059 25.7186 16.9643 25.5585 17.4849C25.3581 17.8445 25.3581 18.0449 25.4001 18.205C25.436 18.5235 25.5961 18.765 25.7597 18.884C25.7889 18.9212 25.8149 18.9607 25.8376 19.0021C25.8376 19.0852 25.7956 19.1666 25.6775 19.1666C25.6364 19.1666 25.5996 19.1666 25.5585 19.1255C24.9574 18.884 24.7159 18.4824 24.638 18.0816C24.3965 18.3642 24.1191 18.5235 23.7954 18.5235C23.2748 18.5235 22.7602 18.0449 22.6789 17.4429C22.6547 17.1876 22.6842 16.9301 22.7655 16.6869C22.5284 16.8374 22.2729 16.924 22.0366 16.924H21.8406C21.3165 17.6844 20.7556 18.205 20.3593 18.4421C20.2228 18.515 20.0719 18.5568 19.9174 18.5646C19.8404 18.5646 19.7179 18.5235 19.6802 18.4421C19.5674 18.2645 19.4982 17.9863 19.4527 17.6678C18.8919 18.2776 18.1166 18.6058 17.7579 18.6058C17.3563 18.6058 17.12 18.3643 17.0789 17.9644V17.5269C17.197 16.6475 17.5208 16.1234 17.5208 15.9633C17.5184 15.9422 17.5089 15.9226 17.4937 15.9077C17.4786 15.8929 17.4587 15.8838 17.4376 15.8819C17.1602 15.8819 16.2397 16.8435 16.0796 17.4857L15.9571 18.0046C15.8793 18.3643 15.5196 18.6058 15.2781 18.6058C15.1591 18.6058 15.0778 18.5646 15.041 18.4062V18.2461L15.0909 17.9731C14.5843 18.3327 14.0785 18.5646 13.837 18.5646C13.4774 18.5646 13.277 18.3642 13.2411 18.0816C12.9996 18.4062 12.7205 18.5646 12.3618 18.5646C11.9461 18.5646 11.5462 18.282 11.3546 17.8725C11.0667 18.1954 10.743 18.5191 10.3606 18.765C9.80063 19.1255 9.16275 19.4029 8.40063 19.4029C7.72163 19.4029 7.1205 19.0424 6.80112 18.7239C6.31813 18.282 6.04075 17.603 5.99963 16.9642C5.7625 15.0051 6.96125 12.4843 8.797 11.3634C9.23888 11.1219 9.68163 10.9635 10.1191 10.9635L10.1209 10.96ZM21.5186 14.8021C21.4005 14.8021 21.3191 15.0025 21.3191 15.1976C21.3191 15.5223 21.4775 15.881 21.6787 16.0822C21.7592 15.8633 21.8009 15.6321 21.8021 15.3989C21.8021 15.0034 21.642 14.803 21.5186 14.803V14.8021Z" fill="url(#paint0_linear_76_27)"/>
<defs>
<linearGradient id="paint0_linear_76_27" x1="2" y1="2" x2="23.2185" y2="28.4733" gradientUnits="userSpaceOnUse">
<stop stop-color="#00D8FF"/>
<stop offset="1" stop-color="#923CFF"/>
</linearGradient>
</defs>
</svg>
