<svg width="451" height="127" viewBox="0 0 451 127" fill="none" xmlns="http://www.w3.org/2000/svg">
<path d="M47.0121 2.02043C59.9758 2.02043 71.3044 4.5898 80.9979 9.72854C90.6915 14.8673 98.166 22.1083 103.422 31.4514C108.794 40.6778 111.48 51.3641 111.48 63.5102C111.48 75.5396 108.794 86.2258 103.422 95.569C98.166 104.912 90.6331 112.153 80.8228 117.292C71.1292 122.431 59.859 125 47.0121 125H0.938592V2.02043H47.0121ZM45.0851 99.0727C56.4137 99.0727 65.2313 95.9778 71.538 89.7879C77.8446 83.598 80.9979 74.8388 80.9979 63.5102C80.9979 52.1816 77.8446 43.364 71.538 37.0573C65.2313 30.7507 56.4137 27.5974 45.0851 27.5974H30.8952V99.0727H45.0851ZM186.382 126.226C174.82 126.226 164.192 123.54 154.499 118.168C144.922 112.795 137.272 105.321 131.55 95.7442C125.944 86.0506 123.141 75.1892 123.141 63.1598C123.141 51.1305 125.944 40.3275 131.55 30.7507C137.272 21.1739 144.922 13.6994 154.499 8.32707C164.192 2.95475 174.82 0.268584 186.382 0.268584C197.945 0.268584 208.514 2.95475 218.091 8.32707C227.784 13.6994 235.376 21.1739 240.865 30.7507C246.471 40.3275 249.274 51.1305 249.274 63.1598C249.274 75.1892 246.471 86.0506 240.865 95.7442C235.259 105.321 227.668 112.795 218.091 118.168C208.514 123.54 197.945 126.226 186.382 126.226ZM186.382 98.8975C196.193 98.8975 204.018 95.6274 209.857 89.0872C215.813 82.5469 218.792 73.9045 218.792 63.1598C218.792 52.2984 215.813 43.656 209.857 37.2325C204.018 30.6923 196.193 27.4222 186.382 27.4222C176.455 27.4222 168.514 30.6339 162.557 37.0573C156.718 43.4808 153.798 52.1816 153.798 63.1598C153.798 74.0213 156.718 82.7221 162.557 89.2623C168.514 95.6858 176.455 98.8975 186.382 98.8975ZM359.663 41.6121C359.663 48.7363 358.028 55.2765 354.758 61.2328C351.488 67.0723 346.466 71.8023 339.692 75.4228C332.918 79.0432 324.51 80.8535 314.466 80.8535H295.896V125H265.939V2.02043H314.466C324.276 2.02043 332.568 3.71388 339.342 7.10078C346.116 10.4877 351.196 15.1593 354.583 21.1155C357.97 27.0718 359.663 33.904 359.663 41.6121ZM312.188 57.0284C317.911 57.0284 322.174 55.6853 324.977 52.9991C327.78 50.313 329.181 46.5173 329.181 41.6121C329.181 36.707 327.78 32.9113 324.977 30.2251C322.174 27.539 317.911 26.1959 312.188 26.1959H295.896V57.0284H312.188ZM405.215 26.0207V50.8969H445.333V74.0213H405.215V101H450.588V125H375.259V2.02043H450.588V26.0207H405.215Z" fill="#00B2FF"/>
</svg>
