<svg width="157" height="156" viewBox="0 0 157 156" fill="none" xmlns="http://www.w3.org/2000/svg">
<circle cx="69.2855" cy="78" r="31.7168" fill="#0090CE"/>
<path d="M78.5669 67.9767V78.6585H98.05V88.5882H78.5669V100.173H98.05V110.479H65.7035V57.6709H98.05V67.9767H78.5669Z" fill="white"/>
<path fill-rule="evenodd" clip-rule="evenodd" d="M65.9327 16H28.2216V140H65.9327C100.174 140 127.933 112.242 127.933 78C127.933 43.7584 100.174 16 65.9327 16ZM69.7296 106.011C85.1935 106.011 97.7296 93.4747 97.7296 78.0107C97.7296 62.5468 85.1935 50.0107 69.7296 50.0107C54.2656 50.0107 41.7296 62.5468 41.7296 78.0107C41.7296 93.4747 54.2656 106.011 69.7296 106.011Z" fill="#00B2FF"/>
<path d="M41.7271 81.6704C41.7271 68.4156 52.4723 57.6704 65.7271 57.6704V57.6704V140H41.7271V81.6704Z" fill="#1E293B"/>
</svg>
