<svg width="32" height="33" viewBox="0 0 32 33" fill="none" xmlns="http://www.w3.org/2000/svg">
<path d="M11.1799 31.2604C13.8478 31.2604 16 29.1081 16 26.4403V21.6201H11.1799C8.51199 21.6201 6.35974 23.7724 6.35974 26.4403C6.35974 29.1081 8.51199 31.2604 11.1799 31.2604Z" fill="#0ACF83"/>
<path d="M6.35974 16.8C6.35974 14.1321 8.51199 11.9799 11.1799 11.9799H16V21.6201H11.1799C8.51199 21.6201 6.35974 19.4679 6.35974 16.8Z" fill="#A259FF"/>
<path d="M6.35974 7.15974C6.35974 4.49185 8.51199 2.3396 11.1799 2.3396H16V11.9799H11.1799C8.51199 11.9799 6.35974 9.82762 6.35974 7.15974Z" fill="#F24E1E"/>
<path d="M16 2.3396H20.8201C23.488 2.3396 25.6403 4.49185 25.6403 7.15974C25.6403 9.82762 23.488 11.9799 20.8201 11.9799H16V2.3396Z" fill="#FF7262"/>
<path d="M25.6403 16.8C25.6403 19.4679 23.488 21.6201 20.8201 21.6201C18.1522 21.6201 16 19.4679 16 16.8C16 14.1321 18.1522 11.9799 20.8201 11.9799C23.488 11.9799 25.6403 14.1321 25.6403 16.8Z" fill="#1ABCFE"/>
</svg>
