<svg width="32" height="33" viewBox="0 0 32 33" fill="none" xmlns="http://www.w3.org/2000/svg">
<path d="M29.4719 15.153L17.2468 2.92828C16.5432 2.22426 15.4013 2.22426 14.6967 2.92828L12.1583 5.46709L15.3785 8.68729C16.1271 8.43465 16.985 8.60411 17.5815 9.20055C18.181 9.80077 18.3492 10.666 18.0903 11.4171L21.1938 14.5208C21.9447 14.262 22.8113 14.4292 23.4106 15.0299C24.249 15.8676 24.249 17.2258 23.4106 18.064C23.2113 18.2633 22.9748 18.4215 22.7144 18.5293C22.454 18.6372 22.1749 18.6928 21.8931 18.6928C21.6112 18.6928 21.3322 18.6372 21.0718 18.5293C20.8114 18.4215 20.5748 18.2633 20.3756 18.064C20.0763 17.7644 19.8723 17.383 19.7892 16.9678C19.7061 16.5525 19.7477 16.122 19.9087 15.7303L17.0145 12.8362L17.0141 20.4533C17.2241 20.5567 17.4158 20.6936 17.5817 20.8588C18.4197 21.6965 18.4197 23.0542 17.5817 23.8938C16.7435 24.7315 15.3849 24.7315 14.5476 23.8938C13.7096 23.0544 13.7096 21.6967 14.5476 20.8588C14.7486 20.6579 14.9873 20.4988 15.2501 20.3907V12.7031C14.987 12.5955 14.7482 12.4363 14.5476 12.2349C13.9128 11.6005 13.76 10.6689 14.0856 9.88905L10.9108 6.71431L2.52829 15.0964C2.1901 15.4347 2.00012 15.8935 2.00012 16.3718C2.00012 16.8502 2.1901 17.3089 2.52829 17.6472L14.7537 29.8719C15.4577 30.5759 16.5991 30.5759 17.3042 29.8719L29.4721 17.704C29.8103 17.3656 30.0002 16.9068 30.0001 16.4284C30.0001 15.9501 29.8101 15.4913 29.4719 15.153Z" fill="#F34F29"/>
</svg>
