<svg width="32" height="33" viewBox="0 0 32 33" fill="none" xmlns="http://www.w3.org/2000/svg">
<g clip-path="url(#clip0_76_8)">
<rect y="0.600098" width="32" height="32" rx="16" fill="#1E293B"/>
<path d="M9.83131 6.27013C10.8668 6.61955 11.8515 7.10428 12.76 7.71173C14.0438 7.38313 15.364 7.21827 16.6892 7.22109C18.0578 7.22109 19.3781 7.39199 20.6157 7.71035C21.5238 7.10349 22.5081 6.61923 23.543 6.27013C24.5036 5.9435 25.8722 5.41427 26.6853 6.31424C27.2366 6.92616 27.3744 7.95154 27.4723 8.73435C27.5825 9.60813 27.6087 10.7465 27.3193 11.8766C28.426 13.3058 29.093 15.0107 29.093 16.8685C29.093 19.6828 27.5687 22.1263 25.3126 23.8188C24.2263 24.6221 23.0222 25.2526 21.7431 25.6876C22.038 26.3629 22.202 27.1099 22.202 27.8941V32.0287C22.202 32.3942 22.0568 32.7448 21.7984 33.0032C21.5399 33.2617 21.1894 33.4069 20.8238 33.4069H12.5546C12.1891 33.4069 11.8386 33.2617 11.5801 33.0032C11.3216 32.7448 11.1764 32.3942 11.1764 32.0287V30.6629C9.86025 30.8241 8.75632 30.6808 7.81776 30.2825C6.83649 29.8663 6.1529 29.2213 5.63883 28.6039C5.15095 28.0195 4.61896 26.7019 3.84993 26.4456C3.67817 26.3884 3.51936 26.2979 3.38256 26.1794C3.24576 26.0608 3.13366 25.9165 3.05265 25.7546C2.88904 25.4276 2.86202 25.0491 2.97753 24.7022C3.09303 24.3553 3.3416 24.0685 3.66856 23.9049C3.99551 23.7413 4.37407 23.7143 4.72095 23.8298C5.63883 24.1357 6.23697 24.7973 6.64629 25.3293C7.30783 26.1837 7.84533 27.3001 8.89276 27.7452C9.32414 27.9285 9.95673 28.0484 10.9463 27.9134L11.1764 27.8665C11.1796 27.1166 11.3358 26.3751 11.6354 25.6876C10.3562 25.2526 9.15213 24.6221 8.06584 23.8188C5.80973 22.1263 4.28544 19.6842 4.28544 16.8685C4.28544 15.0134 4.95111 13.31 6.05505 11.8822C5.76562 10.752 5.79043 9.61089 5.90069 8.73573L5.90758 8.68336C6.00819 7.88125 6.12533 6.93718 6.68764 6.31424C7.50078 5.41427 8.87071 5.94488 9.82993 6.27151L9.83131 6.27013Z" fill="white"/>
</g>
<defs>
<clipPath id="clip0_76_8">
<rect y="0.600098" width="32" height="32" rx="16" fill="white"/>
</clipPath>
</defs>
</svg>
