<svg width="137" height="44" viewBox="0 0 137 44" fill="none" xmlns="http://www.w3.org/2000/svg">
<g clip-path="url(#clip0_136_5)">
<path d="M22.8601 0.415039L51.0641 28.5049V43.5849H37.9022V33.9259L17.4173 13.5237H13.1619V43.5849H0V0.415039H22.8601ZM37.9022 15.3963V0.415039H51.0641V15.3963H37.9022Z" fill="white"/>
</g>
<path d="M68.1225 17.72C69.4292 17.72 70.4692 18.1467 71.2425 19C72.0292 19.84 72.4225 21 72.4225 22.48V29H69.0225V22.94C69.0225 22.1933 68.8292 21.6133 68.4425 21.2C68.0559 20.7867 67.5359 20.58 66.8825 20.58C66.2292 20.58 65.7092 20.7867 65.3225 21.2C64.9359 21.6133 64.7425 22.1933 64.7425 22.94V29H61.3225V17.84H64.7425V19.32C65.0892 18.8267 65.5559 18.44 66.1425 18.16C66.7292 17.8667 67.3892 17.72 68.1225 17.72ZM83.3991 20.56V23.4H74.5991V20.56H83.3991ZM85.7206 23.42C85.7206 22.26 85.954 21.2467 86.4206 20.38C86.9006 19.5133 87.5606 18.8467 88.4006 18.38C89.254 17.9133 90.2273 17.68 91.3206 17.68C92.7206 17.68 93.8873 18.0467 94.8206 18.78C95.7673 19.5133 96.3873 20.5467 96.6806 21.88H93.0406C92.734 21.0267 92.1406 20.6 91.2606 20.6C90.634 20.6 90.134 20.8467 89.7606 21.34C89.3873 21.82 89.2006 22.5133 89.2006 23.42C89.2006 24.3267 89.3873 25.0267 89.7606 25.52C90.134 26 90.634 26.24 91.2606 26.24C92.1406 26.24 92.734 25.8133 93.0406 24.96H96.6806C96.3873 26.2667 95.7673 27.2933 94.8206 28.04C93.874 28.7867 92.7073 29.16 91.3206 29.16C90.2273 29.16 89.254 28.9267 88.4006 28.46C87.5606 27.9933 86.9006 27.3267 86.4206 26.46C85.954 25.5933 85.7206 24.58 85.7206 23.42ZM103.59 29.16C102.497 29.16 101.51 28.9267 100.63 28.46C99.7634 27.9933 99.0767 27.3267 98.57 26.46C98.0767 25.5933 97.83 24.58 97.83 23.42C97.83 22.2733 98.0834 21.2667 98.59 20.4C99.0967 19.52 99.79 18.8467 100.67 18.38C101.55 17.9133 102.537 17.68 103.63 17.68C104.723 17.68 105.71 17.9133 106.59 18.38C107.47 18.8467 108.163 19.52 108.67 20.4C109.177 21.2667 109.43 22.2733 109.43 23.42C109.43 24.5667 109.17 25.58 108.65 26.46C108.143 27.3267 107.443 27.9933 106.55 28.46C105.67 28.9267 104.683 29.16 103.59 29.16ZM103.59 26.2C104.243 26.2 104.797 25.96 105.25 25.48C105.717 25 105.95 24.3133 105.95 23.42C105.95 22.5267 105.723 21.84 105.27 21.36C104.83 20.88 104.283 20.64 103.63 20.64C102.963 20.64 102.41 20.88 101.97 21.36C101.53 21.8267 101.31 22.5133 101.31 23.42C101.31 24.3133 101.523 25 101.95 25.48C102.39 25.96 102.937 26.2 103.59 26.2ZM110.564 23.4C110.564 22.2533 110.778 21.2467 111.204 20.38C111.644 19.5133 112.238 18.8467 112.984 18.38C113.731 17.9133 114.564 17.68 115.484 17.68C116.218 17.68 116.884 17.8333 117.484 18.14C118.098 18.4467 118.578 18.86 118.924 19.38V14.2H122.344V29H118.924V27.4C118.604 27.9333 118.144 28.36 117.544 28.68C116.958 29 116.271 29.16 115.484 29.16C114.564 29.16 113.731 28.9267 112.984 28.46C112.238 27.98 111.644 27.3067 111.204 26.44C110.778 25.56 110.564 24.5467 110.564 23.4ZM118.924 23.42C118.924 22.5667 118.684 21.8933 118.204 21.4C117.738 20.9067 117.164 20.66 116.484 20.66C115.804 20.66 115.224 20.9067 114.744 21.4C114.278 21.88 114.044 22.5467 114.044 23.4C114.044 24.2533 114.278 24.9333 114.744 25.44C115.224 25.9333 115.804 26.18 116.484 26.18C117.164 26.18 117.738 25.9333 118.204 25.44C118.684 24.9467 118.924 24.2733 118.924 23.42ZM135.339 23.24C135.339 23.56 135.319 23.8933 135.279 24.24H127.539C127.592 24.9333 127.812 25.4667 128.199 25.84C128.599 26.2 129.085 26.38 129.659 26.38C130.512 26.38 131.105 26.02 131.439 25.3H135.079C134.892 26.0333 134.552 26.6933 134.059 27.28C133.579 27.8667 132.972 28.3267 132.239 28.66C131.505 28.9933 130.685 29.16 129.779 29.16C128.685 29.16 127.712 28.9267 126.859 28.46C126.005 27.9933 125.339 27.3267 124.859 26.46C124.379 25.5933 124.139 24.58 124.139 23.42C124.139 22.26 124.372 21.2467 124.839 20.38C125.319 19.5133 125.985 18.8467 126.839 18.38C127.692 17.9133 128.672 17.68 129.779 17.68C130.859 17.68 131.819 17.9067 132.659 18.36C133.499 18.8133 134.152 19.46 134.619 20.3C135.099 21.14 135.339 22.12 135.339 23.24ZM131.839 22.34C131.839 21.7533 131.639 21.2867 131.239 20.94C130.839 20.5933 130.339 20.42 129.739 20.42C129.165 20.42 128.679 20.5867 128.279 20.92C127.892 21.2533 127.652 21.7267 127.559 22.34H131.839Z" fill="white"/>
<defs>
<clipPath id="clip0_136_5">
<rect width="52" height="44" fill="white"/>
</clipPath>
</defs>
</svg>
