<svg width="32" height="32" viewBox="0 0 32 32" fill="none" xmlns="http://www.w3.org/2000/svg">
<path d="M9 13.7C9.93333 9.96664 12.2667 8.09998 16 8.09998C21.6 8.09998 22.3 12.3 25.1 13C26.9667 13.4666 28.6 12.7666 30 10.9C29.0667 14.6333 26.7333 16.5 23 16.5C17.4 16.5 16.7 12.3 13.9 11.6C12.0333 11.1333 10.4 11.8333 9 13.7ZM2 22.1C2.93333 18.3666 5.26667 16.5 9 16.5C14.6 16.5 15.3 20.7 18.1 21.4C19.9667 21.8666 21.6 21.1666 23 19.3C22.0667 23.0333 19.7333 24.9 16 24.9C10.4 24.9 9.7 20.7 6.9 20C5.03333 19.5333 3.4 20.2333 2 22.1Z" fill="#38BDF8"/>
</svg>
