<svg width="32" height="33" viewBox="0 0 32 33" fill="none" xmlns="http://www.w3.org/2000/svg">
<g clip-path="url(#clip0_76_14)">
<path d="M29.0854 5.16619L23.2862 2.37365C22.9586 2.2159 22.5901 2.16392 22.2317 2.22491C21.8734 2.2859 21.5428 2.45683 21.2859 2.71403L2.30144 20.0232C2.18081 20.1331 2.08447 20.2671 2.0186 20.4165C1.95272 20.5658 1.91876 20.7273 1.91888 20.8906C1.91901 21.0538 1.95322 21.2152 2.01932 21.3645C2.08542 21.5138 2.18196 21.6476 2.30276 21.7574L3.85338 23.1671C4.05591 23.3514 4.31658 23.459 4.59016 23.4712C4.86373 23.4833 5.13293 23.3993 5.35102 23.2337L28.2127 5.89027C28.9796 5.30846 30.0813 5.85553 30.0813 6.81819V6.7509C30.0813 6.41977 29.9878 6.09536 29.8117 5.81498C29.6355 5.5346 29.3838 5.30986 29.0854 5.16619Z" fill="#0065A9"/>
<g filter="url(#filter0_d_76_14)">
<path d="M29.0852 27.2341L23.286 30.0262C22.9585 30.184 22.59 30.236 22.2316 30.1751C21.8732 30.1142 21.5427 29.9434 21.2857 29.6862L2.30125 12.3769C2.18062 12.2669 2.08429 12.1329 2.01841 11.9836C1.95254 11.8342 1.91858 11.6727 1.9187 11.5095C1.91883 11.3462 1.95303 11.1848 2.01913 11.0355C2.08524 10.8863 2.18178 10.7525 2.30257 10.6427L3.8532 9.23297C4.05572 9.04865 4.3164 8.94106 4.58997 8.92889C4.86355 8.91672 5.13275 9.00074 5.35084 9.16635L28.2125 26.5096C28.9795 27.0916 30.0811 26.5445 30.0811 25.5819V25.6491C30.0811 25.9803 29.9876 26.3047 29.8115 26.5851C29.6353 26.8654 29.3836 27.0904 29.0852 27.2341Z" fill="#007ACC"/>
</g>
<g filter="url(#filter1_d_76_14)">
<path d="M23.2862 30.0269C22.9586 30.1844 22.5901 30.2362 22.2317 30.1752C21.8734 30.1141 21.5428 29.9433 21.2857 29.6863C21.9348 30.3354 23.0448 29.8757 23.0448 28.9576V3.4424C23.0448 2.52438 21.9348 2.0646 21.2857 2.71392C21.5428 2.45691 21.8734 2.2861 22.2317 2.22509C22.5901 2.16407 22.9586 2.21587 23.2862 2.37332L29.0844 5.1619C29.3829 5.30548 29.6349 5.53045 29.8112 5.81092C29.9876 6.0914 30.0811 6.41597 30.0811 6.74727V25.6534C30.0811 25.9847 29.9876 26.3093 29.8112 26.5898C29.6349 26.8702 29.3829 27.0952 29.0844 27.2388L23.2862 30.0269Z" fill="#1F9CF0"/>
</g>
<path opacity="0.25" fill-rule="evenodd" clip-rule="evenodd" d="M21.8773 30.0806C22.1012 30.1678 22.3407 30.2081 22.5809 30.1989C22.821 30.1896 23.0567 30.1311 23.2733 30.0269L29.0679 27.2385C29.3664 27.0949 29.6182 26.8699 29.7944 26.5894C29.9706 26.3089 30.0641 25.9844 30.064 25.6532V6.74703C30.0641 6.4158 29.9706 6.09127 29.7944 5.81081C29.6182 5.53034 29.3664 5.30533 29.0679 5.16165L23.2733 2.37373C22.9459 2.21619 22.5776 2.16432 22.2194 2.2253C21.8612 2.28628 21.5308 2.4571 21.2739 2.71412L10.1807 12.8345L5.34894 9.16686C5.13095 9.00145 4.86194 8.91753 4.58857 8.92966C4.31519 8.94179 4.05467 9.0492 3.85218 9.23326L2.30243 10.6429C2.18169 10.7528 2.0852 10.8867 2.01914 11.0359C1.95307 11.1852 1.91889 11.3466 1.91876 11.5099C1.91864 11.6731 1.95258 11.8346 2.01842 11.984C2.08426 12.1334 2.18054 12.2674 2.30111 12.3774L6.49146 16.2001L2.30133 20.023C2.18073 20.133 2.08442 20.267 2.01856 20.4164C1.9527 20.5658 1.91875 20.7273 1.91888 20.8905C1.919 21.0538 1.9532 21.2152 2.01928 21.3645C2.08537 21.5138 2.18188 21.6476 2.30265 21.7575L3.8524 23.1672C4.05487 23.3513 4.31537 23.4587 4.58875 23.4709C4.86212 23.483 5.13114 23.3992 5.34916 23.2338L10.1811 19.5659L21.2743 29.6863C21.446 29.8579 21.6512 29.9921 21.8773 30.0806ZM23.0321 9.81068L14.6149 16.2001L23.0321 22.5893V9.81068Z" fill="url(#paint0_linear_76_14)"/>
</g>
<defs>
<filter id="filter0_d_76_14" x="0.0861802" y="7.09521" width="31.8274" height="24.9373" filterUnits="userSpaceOnUse" color-interpolation-filters="sRGB">
<feFlood flood-opacity="0" result="BackgroundImageFix"/>
<feColorMatrix in="SourceAlpha" type="matrix" values="0 0 0 0 0 0 0 0 0 0 0 0 0 0 0 0 0 0 127 0" result="hardAlpha"/>
<feOffset/>
<feGaussianBlur stdDeviation="0.91626"/>
<feColorMatrix type="matrix" values="0 0 0 0 0 0 0 0 0 0 0 0 0 0 0 0 0 0 0.25 0"/>
<feBlend mode="overlay" in2="BackgroundImageFix" result="effect1_dropShadow_76_14"/>
<feBlend mode="normal" in="SourceGraphic" in2="effect1_dropShadow_76_14" result="shape"/>
</filter>
<filter id="filter1_d_76_14" x="19.4532" y="0.367674" width="12.4605" height="31.6649" filterUnits="userSpaceOnUse" color-interpolation-filters="sRGB">
<feFlood flood-opacity="0" result="BackgroundImageFix"/>
<feColorMatrix in="SourceAlpha" type="matrix" values="0 0 0 0 0 0 0 0 0 0 0 0 0 0 0 0 0 0 127 0" result="hardAlpha"/>
<feOffset/>
<feGaussianBlur stdDeviation="0.91626"/>
<feColorMatrix type="matrix" values="0 0 0 0 0 0 0 0 0 0 0 0 0 0 0 0 0 0 0.25 0"/>
<feBlend mode="overlay" in2="BackgroundImageFix" result="effect1_dropShadow_76_14"/>
<feBlend mode="normal" in="SourceGraphic" in2="effect1_dropShadow_76_14" result="shape"/>
</filter>
<linearGradient id="paint0_linear_76_14" x1="15.9914" y1="2.20002" x2="15.9914" y2="30.2002" gradientUnits="userSpaceOnUse">
<stop stop-color="white"/>
<stop offset="1" stop-color="white" stop-opacity="0"/>
</linearGradient>
<clipPath id="clip0_76_14">
<rect width="32" height="32" fill="white" transform="translate(0 0.200073)"/>
</clipPath>
</defs>
</svg>
