<svg width="256" height="256" viewBox="0 0 256 256" fill="none" xmlns="http://www.w3.org/2000/svg">
<g clip-path="url(#clip0_102_56)">
<path d="M38.1869 227.623L18.2107 3.48193H237.789L217.786 227.588L127.867 252.518L38.1869 227.623Z" fill="#1572B6"/>
<path d="M128 233.467L200.665 213.322L217.76 21.813H128V233.467Z" fill="#33A9DC"/>
<path d="M128 103.017H164.377L166.885 74.8666H128V47.3748H196.93L196.272 54.748L189.521 130.508H128V103.017Z" fill="white"/>
<path d="M128.169 174.409L128.045 174.444L97.431 166.173L95.4743 144.249H67.8757L71.7269 187.412L128.036 203.048L128.169 203.012V174.409Z" fill="#EBEBEB"/>
<path d="M162.039 129.342L158.73 166.155L128.072 174.426V203.03L184.425 187.412L184.843 182.769L189.62 129.342H162.039Z" fill="white"/>
<path d="M128.099 47.3748V74.8666H61.6951L61.1437 68.6851L59.8896 54.748L59.2314 47.3748H128.099ZM128.001 103.017V130.508H97.7698L97.2183 124.327L95.9732 110.39L95.315 103.017H128.001Z" fill="#EBEBEB"/>
</g>
<defs>
<clipPath id="clip0_102_56">
<rect width="256" height="256" fill="white"/>
</clipPath>
</defs>
</svg>
