<svg width="154" height="21" viewBox="0 0 154 21" fill="none" xmlns="http://www.w3.org/2000/svg">

<g clip-path="url(#clip0_233_2159)">
<path d="M10.9353 0.217301L0.545898 9.29756V12.1066L10.7233 21V18.5501L10.7405 18.5315L10.7233 18.513V16.128C9.72508 15.8533 8.77848 15.4173 7.92087 14.8374C7.39564 14.4979 6.94542 14.0545 6.59792 13.5345C6.25042 13.0145 6.01299 12.4289 5.90024 11.8137C5.76658 11.1081 5.73756 10.3866 5.81412 9.67253C5.89998 8.83716 6.08411 8.01483 6.36267 7.2226C6.41699 7.33523 6.85822 7.7844 7.40015 8.2826C8.29055 9.10676 9.44993 10.07 9.59833 9.93754C9.13128 9.07265 8.82637 8.12963 8.69865 7.15503C8.57704 6.29397 8.61341 5.41795 8.80598 4.56994C8.80671 4.56827 8.80708 4.56647 8.80708 4.56464C8.80708 4.56282 8.80671 4.56101 8.80598 4.55934C9.03528 3.68653 9.36149 2.84211 9.77853 2.04183C9.85141 1.89608 9.92693 1.75166 10.0104 1.60723C10.2772 1.11763 10.5867 0.65252 10.9353 0.217301ZM13.148 0C13.1334 0.0755253 13.1228 0.152376 13.1083 0.227901C12.9903 0.913204 12.9322 1.60748 12.9347 2.30286C12.9347 2.68313 12.9638 3.04354 12.9996 3.39069C13.0715 4.00401 13.2047 4.60858 13.3971 5.19534C14.1789 7.53 15.6894 8.60061 15.8696 8.53833C15.8696 8.53833 15.9213 8.06133 15.965 7.4399C16.0259 6.67272 16.0803 5.6909 16.0326 5.11187C16.8859 5.53189 18.4547 7.53398 18.6826 9.81563C18.7517 10.4582 18.6978 11.108 18.5236 11.7303C18.0638 13.3428 16.6951 14.9222 13.7376 16.0326V20.8874L23.7838 12.1066V9.29756L13.148 0Z" fill="#EFEFEF"/>
<mask id="mask0_233_2159" style="mask-type:luminance" maskUnits="userSpaceOnUse" x="0" y="0" width="24" height="21">
<path d="M10.9353 0.217301L0.545898 9.29756V12.1066L10.7233 21V18.5501L10.7405 18.5315L10.7233 18.513V16.128C9.72508 15.8533 8.77848 15.4173 7.92087 14.8374C7.39564 14.4979 6.94542 14.0545 6.59792 13.5345C6.25042 13.0145 6.01299 12.4289 5.90024 11.8137C5.76658 11.1081 5.73756 10.3866 5.81412 9.67253C5.89998 8.83716 6.08411 8.01483 6.36267 7.2226C6.41699 7.33523 6.85822 7.7844 7.40015 8.2826C8.29055 9.10676 9.44993 10.07 9.59833 9.93754C9.13128 9.07265 8.82637 8.12963 8.69865 7.15503C8.57704 6.29397 8.61341 5.41795 8.80598 4.56994C8.80671 4.56827 8.80708 4.56647 8.80708 4.56464C8.80708 4.56282 8.80671 4.56101 8.80598 4.55934C9.03528 3.68653 9.36149 2.84211 9.77853 2.04183C9.85141 1.89608 9.92693 1.75166 10.0104 1.60723C10.2772 1.11763 10.5867 0.65252 10.9353 0.217301ZM13.148 0C13.1334 0.0755253 13.1228 0.152376 13.1083 0.227901C12.9903 0.913204 12.9322 1.60748 12.9347 2.30286C12.9347 2.68313 12.9638 3.04354 12.9996 3.39069C13.0715 4.00401 13.2047 4.60858 13.3971 5.19534C14.1789 7.53 15.6894 8.60061 15.8696 8.53833C15.8696 8.53833 15.9213 8.06133 15.965 7.4399C16.0259 6.67272 16.0803 5.6909 16.0326 5.11187C16.8859 5.53189 18.4547 7.53398 18.6826 9.81563C18.7517 10.4582 18.6978 11.108 18.5236 11.7303C18.0638 13.3428 16.6951 14.9222 13.7376 16.0326V20.8874L23.7838 12.1066V9.29756L13.148 0Z" fill="white"/>
</mask>
<g mask="url(#mask0_233_2159)">
<path d="M23.7838 0H0.545898V21H23.7838V0Z" fill="#EFEFEF"/>
</g>
</g>
<path d="M36.5954 2.88985C37.9282 2.88985 39.1369 3.19038 40.2214 3.79144C41.3125 4.3925 42.1683 5.22549 42.789 6.29041C43.4096 7.35533 43.72 8.54438 43.72 9.85757C43.72 11.1969 43.4096 12.4088 42.789 13.4933C42.1683 14.5713 41.3125 15.4174 40.2214 16.0315C39.1369 16.6391 37.9282 16.9429 36.5954 16.9429H31.7837V2.88985H36.5954ZM36.8012 14.0911C37.9119 14.0911 38.8298 13.6893 39.555 12.8857C40.2867 12.0821 40.6526 11.0728 40.6526 9.85757C40.6526 8.66198 40.29 7.67873 39.5648 6.9078C38.8461 6.13034 37.925 5.74161 36.8012 5.74161H34.7531V14.0911H36.8012Z" fill="white"/>
<path d="M54.3336 11.5823C54.3336 11.9809 54.3075 12.35 54.2552 12.6897H47.1699C47.3006 13.3561 47.5848 13.8657 48.0225 14.2185C48.4602 14.5648 49.0188 14.7379 49.6983 14.7379C50.1425 14.7379 50.5672 14.6432 50.9723 14.4537C51.3839 14.2643 51.6746 14.0225 51.8445 13.7285L54.0494 15.0809C53.6901 15.7342 53.1217 16.2406 52.3443 16.5999C51.5668 16.9592 50.6652 17.1389 49.6395 17.1389C48.1891 17.1389 46.9608 16.6424 45.9547 15.6493C44.9551 14.6497 44.4553 13.4215 44.4553 11.9645C44.4553 10.5338 44.9486 9.33164 45.9351 8.35818C46.9282 7.3782 48.1434 6.8882 49.5807 6.8882C50.9135 6.8882 52.0372 7.34226 52.9518 8.25039C53.873 9.15851 54.3336 10.2692 54.3336 11.5823ZM47.2091 10.8866H51.5015C51.4427 10.3966 51.214 9.98823 50.8155 9.66157C50.4169 9.33491 49.9563 9.17158 49.4337 9.17158C48.8457 9.17158 48.3622 9.32184 47.9833 9.62237C47.6044 9.9229 47.3463 10.3443 47.2091 10.8866Z" fill="white"/>
<path d="M64.5455 7.0842L60.4688 16.9429H58.058L53.9616 7.0842H57.0388L59.2634 13.0915L61.4487 7.0842H64.5455Z" fill="white"/>
<path d="M78.2265 13.2287C77.9979 13.9931 77.583 14.6726 76.982 15.2671C76.3874 15.8616 75.6622 16.3222 74.8064 16.6489C73.9505 16.9756 73.0391 17.1389 72.0722 17.1389C70.746 17.1389 69.5406 16.822 68.4561 16.1883C67.3715 15.548 66.5222 14.6758 65.9081 13.5717C65.294 12.4676 64.9869 11.2492 64.9869 9.91637C64.9869 8.91024 65.1666 7.96292 65.5259 7.0744C65.8918 6.17934 66.385 5.41168 67.0057 4.77142C67.6329 4.13116 68.3842 3.62484 69.2596 3.25244C70.1416 2.88005 71.0792 2.69385 72.0722 2.69385C73.4965 2.69385 74.7639 3.03684 75.8746 3.72284C76.9918 4.4023 77.7235 5.27775 78.0698 6.34921L75.4238 7.61339C75.1624 6.99273 74.7345 6.49947 74.14 6.13361C73.5455 5.76775 72.8562 5.58482 72.0722 5.58482C70.8832 5.58482 69.913 5.99314 69.1617 6.8098C68.4103 7.62646 68.0347 8.66198 68.0347 9.91637C68.0347 11.1642 68.4103 12.1997 69.1617 13.0229C69.9195 13.8461 70.8897 14.2577 72.0722 14.2577C72.9085 14.2577 73.6337 14.0519 74.2478 13.6403C74.8619 13.2287 75.28 12.6767 75.5022 11.9841L78.2265 13.2287Z" fill="white"/>
<path d="M84.8517 6.8882C86.093 6.8882 87.0697 7.29 87.7818 8.09359C88.5005 8.89065 88.8598 9.9817 88.8598 11.3668V16.9429H86.0277V11.8469C86.0277 11.174 85.8578 10.6481 85.5181 10.2692C85.1783 9.89023 84.7145 9.70077 84.1265 9.70077C83.7345 9.70077 83.3621 9.80203 83.0093 10.0046C82.663 10.2006 82.3854 10.4652 82.1763 10.7984V16.9429H79.3441V2.88985H82.1763V8.23079C82.4572 7.81919 82.8362 7.49253 83.3131 7.2508C83.79 7.00907 84.3029 6.8882 84.8517 6.8882Z" fill="white"/>
<path d="M97.5527 7.0842H100.385V16.9429H97.5527V15.7767C97.311 16.1818 96.919 16.5117 96.3767 16.7665C95.841 17.0148 95.2628 17.1389 94.6422 17.1389C93.7994 17.1389 93.0252 16.9102 92.3196 16.4529C91.614 15.9956 91.0587 15.3749 90.6536 14.5909C90.2485 13.8004 90.046 12.938 90.046 12.0037C90.046 10.5795 90.4903 9.37084 91.3788 8.37778C92.2738 7.38473 93.3616 6.8882 94.6422 6.8882C95.2563 6.8882 95.8345 7.0156 96.3767 7.2704C96.919 7.52519 97.311 7.85186 97.5527 8.25039V7.0842ZM95.2693 14.4537C95.7463 14.4537 96.1905 14.3394 96.6021 14.1107C97.0203 13.8821 97.3371 13.5881 97.5527 13.2287V10.818C97.3371 10.4456 97.0203 10.1418 96.6021 9.90657C96.1905 9.67137 95.7463 9.55377 95.2693 9.55377C94.5768 9.55377 93.9954 9.78897 93.525 10.2594C93.0546 10.7232 92.8194 11.3047 92.8194 12.0037C92.8194 12.7028 93.0546 13.2875 93.525 13.7579C93.9954 14.2218 94.5768 14.4537 95.2693 14.4537Z" fill="white"/>
<path d="M104.795 2.88985V16.9429H101.963V2.88985H104.795Z" fill="white"/>
<path d="M109.235 2.88985V16.9429H106.403V2.88985H109.235Z" fill="white"/>
<path d="M120.201 11.5823C120.201 11.9809 120.175 12.35 120.123 12.6897H113.038C113.168 13.3561 113.453 13.8657 113.89 14.2185C114.328 14.5648 114.887 14.7379 115.566 14.7379C116.01 14.7379 116.435 14.6432 116.84 14.4537C117.252 14.2643 117.542 14.0225 117.712 13.7285L119.917 15.0809C119.558 15.7342 118.99 16.2406 118.212 16.5999C117.435 16.9592 116.533 17.1389 115.507 17.1389C114.057 17.1389 112.829 16.6424 111.823 15.6493C110.823 14.6497 110.323 13.4215 110.323 11.9645C110.323 10.5338 110.816 9.33164 111.803 8.35818C112.796 7.3782 114.011 6.8882 115.448 6.8882C116.781 6.8882 117.905 7.34226 118.82 8.25039C119.741 9.15851 120.201 10.2692 120.201 11.5823ZM113.077 10.8866H117.369C117.31 10.3966 117.082 9.98823 116.683 9.66157C116.285 9.33491 115.824 9.17158 115.301 9.17158C114.714 9.17158 114.23 9.32184 113.851 9.62237C113.472 9.9229 113.214 10.3443 113.077 10.8866Z" fill="white"/>
<path d="M126.905 6.8882C128.146 6.8882 129.123 7.29 129.835 8.09359C130.554 8.89065 130.913 9.9817 130.913 11.3668V16.9429H128.081V11.8469C128.081 11.174 127.911 10.6481 127.571 10.2692C127.232 9.89023 126.768 9.70077 126.18 9.70077C125.788 9.70077 125.412 9.80203 125.053 10.0046C124.693 10.2071 124.413 10.4782 124.21 10.818V16.9429H121.378V7.0842H124.21V8.25039C124.478 7.83226 124.854 7.50233 125.337 7.2606C125.827 7.01233 126.35 6.8882 126.905 6.8882Z" fill="white"/>
<path d="M139.586 7.0646H142.419V16.5215C142.419 17.4231 142.193 18.2169 141.742 18.9029C141.298 19.5889 140.697 20.1083 139.939 20.461C139.181 20.8204 138.329 21 137.381 21C136.519 21 135.663 20.8563 134.814 20.5688C133.971 20.2879 133.321 19.909 132.864 19.4321L134.206 17.4623C135.049 18.1352 136.081 18.4717 137.303 18.4717C137.917 18.4717 138.45 18.2822 138.9 17.9033C139.358 17.5243 139.586 17.0442 139.586 16.4627V15.5219C139.345 15.9074 138.953 16.2242 138.41 16.4725C137.868 16.7208 137.29 16.8449 136.676 16.8449C135.833 16.8449 135.059 16.6228 134.353 16.1785C133.648 15.7342 133.092 15.1299 132.687 14.3655C132.282 13.5946 132.08 12.7551 132.08 11.8469C132.08 10.9454 132.282 10.1124 132.687 9.34797C133.092 8.58358 133.648 7.97926 134.353 7.53499C135.059 7.09073 135.833 6.8686 136.676 6.8686C137.29 6.8686 137.868 6.996 138.41 7.2508C138.953 7.49906 139.345 7.81919 139.586 8.21119V7.0646ZM137.303 14.2381C137.78 14.2381 138.224 14.1271 138.636 13.9049C139.054 13.6763 139.371 13.3855 139.586 13.0327V10.7004C139.371 10.341 139.054 10.047 138.636 9.81837C138.224 9.5897 137.78 9.47537 137.303 9.47537C136.611 9.47537 136.029 9.70404 135.559 10.1614C135.088 10.6122 134.853 11.174 134.853 11.8469C134.853 12.5264 135.088 13.0948 135.559 13.5521C136.029 14.0095 136.611 14.2381 137.303 14.2381Z" fill="white"/>
<path d="M153.454 11.5823C153.454 11.9809 153.428 12.35 153.375 12.6897H146.29C146.421 13.3561 146.705 13.8657 147.143 14.2185C147.58 14.5648 148.139 14.7379 148.818 14.7379C149.263 14.7379 149.687 14.6432 150.092 14.4537C150.504 14.2643 150.795 14.0225 150.964 13.7285L153.169 15.0809C152.81 15.7342 152.242 16.2406 151.464 16.5999C150.687 16.9592 149.785 17.1389 148.759 17.1389C147.309 17.1389 146.081 16.6424 145.075 15.6493C144.075 14.6497 143.575 13.4215 143.575 11.9645C143.575 10.5338 144.069 9.33164 145.055 8.35818C146.048 7.3782 147.263 6.8882 148.701 6.8882C150.033 6.8882 151.157 7.34226 152.072 8.25039C152.993 9.15851 153.454 10.2692 153.454 11.5823ZM146.329 10.8866H150.621C150.563 10.3966 150.334 9.98823 149.935 9.66157C149.537 9.33491 149.076 9.17158 148.554 9.17158C147.966 9.17158 147.482 9.32184 147.103 9.62237C146.724 9.9229 146.466 10.3443 146.329 10.8866Z" fill="white"/>
<defs>
<clipPath id="clip0_233_2159">
<rect width="23.2379" height="21" fill="white" transform="translate(0.545898)"/>
</clipPath>
</defs>
</svg>
