<svg width="157" height="157" viewBox="0 0 157 157" fill="none" xmlns="http://www.w3.org/2000/svg">
<path d="M64.7419 8.9684C73.4052 3.96669 84.0787 3.96668 92.7419 8.9684L132.292 31.8026C140.955 36.8043 146.292 46.0479 146.292 56.0513V101.72C146.292 111.723 140.955 120.967 132.292 125.968L92.7419 148.803C84.0787 153.804 73.4052 153.804 64.7419 148.803L25.192 125.968C16.5287 120.967 11.192 111.723 11.192 101.72V56.0513C11.192 46.0479 16.5287 36.8043 25.192 31.8026L64.7419 8.9684Z" fill="#0EA5E9"/>
<path d="M66.8849 91.3794V103.471H63.9395V98.4929H59.3579V103.471H56.4126V91.3794H59.3579V96.116H63.9395V91.3794H66.8849ZM77.7093 91.3794V93.7391H74.5056V103.471H71.5603V93.7391H68.3566V91.3794H77.7093ZM92.8807 91.3794V103.471H89.9353V96.2193L87.2312 103.471H84.8542L82.1328 96.2021V103.471H79.1875V91.3794H82.6668L86.0599 99.7503L89.4186 91.3794H92.8807ZM97.944 101.197H101.802V103.471H94.9987V91.3794H97.944V101.197Z" fill="white"/>
<path d="M63.4233 47.3003L66.1413 78.0006L78.9251 81.7486L91.7863 78.0023L94.4268 47.3003H63.4233ZM87.6215 57.7175H73.887L74.1833 61.1898H87.4407L86.3624 72.4975L79.0491 74.8761L71.6754 72.37L71.1794 67.3199H74.6655L74.9411 69.7502L79.0749 71.154L83.1157 69.8398L83.6273 64.6639H71.0295L70.0615 54.2433H87.9953L87.6215 57.7175Z" fill="white"/>
</svg>
