<svg width="256" height="256" viewBox="0 0 256 256" fill="none" xmlns="http://www.w3.org/2000/svg">
<g clip-path="url(#clip0_102_55)">
<path d="M38.2052 227.603L18.2241 3.50732H237.776L217.768 227.567L127.867 252.493L38.2052 227.603Z" fill="#E44F26"/>
<path d="M128 233.446L200.651 213.304L217.742 21.8347H128V233.446Z" fill="#F1662A"/>
<path d="M128.001 104.941H91.6309L89.1233 76.7967H128.001V49.3105H59.085L59.743 56.6912L66.4923 132.427H128.001V104.941ZM128.001 176.32L127.876 176.355L97.2686 168.094L95.3123 146.175H67.7194L71.5698 189.32L127.876 204.953L128.001 204.918V176.32Z" fill="#EBEBEB"/>
<path d="M127.902 104.941V132.427H161.747L158.563 168.077L127.902 176.346V204.944L184.253 189.32L184.662 184.679L191.118 112.322L191.794 104.941H127.902ZM127.902 49.3105V76.7968H194.293L194.844 70.6255L196.098 56.6912L196.756 49.3105H127.902Z" fill="white"/>
</g>
<defs>
<clipPath id="clip0_102_55">
<rect width="256" height="256" fill="white"/>
</clipPath>
</defs>
</svg>
