<svg width="256" height="256" viewBox="0 0 256 256" fill="none" xmlns="http://www.w3.org/2000/svg">
<g clip-path="url(#clip0_103_57)">
<path d="M16 16H240V240H16V16Z" fill="#F5DE19"/>
<path d="M166.473 191.001C168.384 194.875 171.35 198.132 175.029 200.396C178.709 202.66 182.952 203.84 187.273 203.801C195.993 203.801 201.569 199.441 201.569 193.401C201.569 186.201 195.841 183.625 186.241 179.425L180.977 177.169C165.777 170.697 155.697 162.593 155.697 145.457C155.697 129.673 167.697 117.649 186.521 117.649C192.614 117.21 198.702 118.574 204.025 121.572C209.349 124.569 213.672 129.067 216.457 134.505L200.001 145.025C198.928 142.329 197.061 140.022 194.648 138.411C192.235 136.799 189.39 135.959 186.489 136.001C185.223 135.874 183.944 136.012 182.735 136.407C181.525 136.802 180.411 137.444 179.464 138.293C178.516 139.142 177.756 140.179 177.231 141.338C176.707 142.497 176.429 143.753 176.417 145.025C176.417 151.337 180.329 153.897 189.361 157.825L194.625 160.081C212.513 167.753 222.625 175.569 222.625 193.145C222.625 212.097 207.737 222.481 187.745 222.481C179.956 222.972 172.191 221.201 165.385 217.382C158.579 213.562 153.023 207.857 149.385 200.953L166.473 191.001ZM92.1126 192.825C95.4166 198.689 98.4246 203.649 105.657 203.649C112.569 203.649 116.937 200.945 116.937 190.425V118.849H137.985V190.705C137.985 212.497 125.185 222.417 106.553 222.417C99.9666 222.777 93.4258 221.136 87.79 217.709C82.1543 214.282 77.6874 209.23 74.9766 203.217L92.1126 192.825Z" fill="black"/>
</g>
<defs>
<clipPath id="clip0_103_57">
<rect width="256" height="256" fill="white"/>
</clipPath>
</defs>
</svg>
