<svg width="236" height="720" viewBox="0 0 236 720" fill="none" xmlns="http://www.w3.org/2000/svg">
<g clip-path="url(#clip0_277_6132)">
<rect width="236" height="720" fill="url(#paint0_linear_277_6132)"/>
<g clip-path="url(#clip1_277_6132)">
<g opacity="0.4">
<path d="M11.25 192H-36V242H11.25V192Z" stroke="white" stroke-opacity="0.02" stroke-width="3.5"/>
<path d="M58.5 192H11.25V242H58.5V192Z" stroke="white" stroke-opacity="0.02" stroke-width="3.5"/>
<path d="M105.75 192H58.5V242H105.75V192Z" stroke="white" stroke-opacity="0.02" stroke-width="3.5"/>
<path d="M153 192H105.75V242H153V192Z" stroke="white" stroke-opacity="0.02" stroke-width="3.5"/>
<path d="M200.25 192H153V242H200.25V192Z" stroke="white" stroke-opacity="0.02" stroke-width="3.5"/>
<path d="M247.5 192H200.25V242H247.5V192Z" stroke="white" stroke-opacity="0.02" stroke-width="3.5"/>
<path d="M11.25 242H-36V292H11.25V242Z" stroke="white" stroke-opacity="0.02" stroke-width="3.5"/>
<path d="M58.5 242H11.25V292H58.5V242Z" stroke="white" stroke-opacity="0.02" stroke-width="3.5"/>
<path d="M105.75 242H58.5V292H105.75V242Z" stroke="white" stroke-opacity="0.02" stroke-width="3.5"/>
<path d="M153 242H105.75V292H153V242Z" stroke="white" stroke-opacity="0.02" stroke-width="3.5"/>
<path d="M200.25 242H153V292H200.25V242Z" stroke="white" stroke-opacity="0.02" stroke-width="3.5"/>
<path d="M247.5 242H200.25V292H247.5V242Z" stroke="white" stroke-opacity="0.02" stroke-width="3.5"/>
<path d="M11.25 292H-36V342H11.25V292Z" stroke="white" stroke-opacity="0.02" stroke-width="3.5"/>
<path d="M58.5 292H11.25V342H58.5V292Z" stroke="white" stroke-opacity="0.02" stroke-width="3.5"/>
<path d="M105.75 292H58.5V342H105.75V292Z" stroke="white" stroke-opacity="0.02" stroke-width="3.5"/>
<path d="M153 292H105.75V342H153V292Z" stroke="white" stroke-opacity="0.02" stroke-width="3.5"/>
<path d="M200.25 292H153V342H200.25V292Z" stroke="white" stroke-opacity="0.02" stroke-width="3.5"/>
<path d="M247.5 292H200.25V342H247.5V292Z" stroke="white" stroke-opacity="0.02" stroke-width="3.5"/>
<path d="M11.25 342H-36V392H11.25V342Z" stroke="white" stroke-opacity="0.02" stroke-width="3.5"/>
<path d="M58.5 342H11.25V392H58.5V342Z" stroke="white" stroke-opacity="0.02" stroke-width="3.5"/>
<path d="M105.75 342H58.5V392H105.75V342Z" stroke="white" stroke-opacity="0.02" stroke-width="3.5"/>
<path d="M153 342H105.75V392H153V342Z" stroke="white" stroke-opacity="0.02" stroke-width="3.5"/>
<path d="M200.25 342H153V392H200.25V342Z" stroke="white" stroke-opacity="0.02" stroke-width="3.5"/>
<path d="M247.5 342H200.25V392H247.5V342Z" stroke="white" stroke-opacity="0.02" stroke-width="3.5"/>
<path d="M11.25 392H-36V442H11.25V392Z" stroke="white" stroke-opacity="0.02" stroke-width="3.5"/>
<path d="M58.5 392H11.25V442H58.5V392Z" stroke="white" stroke-opacity="0.02" stroke-width="3.5"/>
<path d="M105.75 392H58.5V442H105.75V392Z" stroke="white" stroke-opacity="0.02" stroke-width="3.5"/>
<path d="M153 392H105.75V442H153V392Z" stroke="white" stroke-opacity="0.02" stroke-width="3.5"/>
<path d="M200.25 392H153V442H200.25V392Z" stroke="white" stroke-opacity="0.02" stroke-width="3.5"/>
<path d="M247.5 392H200.25V442H247.5V392Z" stroke="white" stroke-opacity="0.02" stroke-width="3.5"/>
<path d="M11.25 442H-36V492H11.25V442Z" stroke="white" stroke-opacity="0.02" stroke-width="3.5"/>
<path d="M58.5 442H11.25V492H58.5V442Z" stroke="white" stroke-opacity="0.02" stroke-width="3.5"/>
<path d="M105.75 442H58.5V492H105.75V442Z" stroke="white" stroke-opacity="0.02" stroke-width="3.5"/>
<path d="M153 442H105.75V492H153V442Z" stroke="white" stroke-opacity="0.02" stroke-width="3.5"/>
<path d="M200.25 442H153V492H200.25V442Z" stroke="white" stroke-opacity="0.02" stroke-width="3.5"/>
<path d="M247.5 442H200.25V492H247.5V442Z" stroke="white" stroke-opacity="0.02" stroke-width="3.5"/>
<path d="M11.25 492H-36V542H11.25V492Z" stroke="white" stroke-opacity="0.02" stroke-width="3.5"/>
<path d="M58.5 492H11.25V542H58.5V492Z" stroke="white" stroke-opacity="0.02" stroke-width="3.5"/>
<path d="M105.75 492H58.5V542H105.75V492Z" stroke="white" stroke-opacity="0.02" stroke-width="3.5"/>
<path d="M153 492H105.75V542H153V492Z" stroke="white" stroke-opacity="0.02" stroke-width="3.5"/>
<path d="M200.25 492H153V542H200.25V492Z" stroke="white" stroke-opacity="0.02" stroke-width="3.5"/>
<path d="M247.5 492H200.25V542H247.5V492Z" stroke="white" stroke-opacity="0.02" stroke-width="3.5"/>
<path d="M11.25 542H-36V592H11.25V542Z" stroke="white" stroke-opacity="0.02" stroke-width="3.5"/>
<path d="M58.5 542H11.25V592H58.5V542Z" stroke="white" stroke-opacity="0.02" stroke-width="3.5"/>
<path d="M105.75 542H58.5V592H105.75V542Z" stroke="white" stroke-opacity="0.02" stroke-width="3.5"/>
<path d="M153 542H105.75V592H153V542Z" stroke="white" stroke-opacity="0.02" stroke-width="3.5"/>
<path d="M200.25 542H153V592H200.25V542Z" stroke="white" stroke-opacity="0.02" stroke-width="3.5"/>
<path d="M247.5 542H200.25V592H247.5V542Z" stroke="white" stroke-opacity="0.02" stroke-width="3.5"/>
<path d="M11.25 592H-36V642H11.25V592Z" stroke="white" stroke-opacity="0.02" stroke-width="3.5"/>
<path d="M58.5 592H11.25V642H58.5V592Z" stroke="white" stroke-opacity="0.02" stroke-width="3.5"/>
<path d="M105.75 592H58.5V642H105.75V592Z" stroke="white" stroke-opacity="0.02" stroke-width="3.5"/>
<path d="M153 592H105.75V642H153V592Z" stroke="white" stroke-opacity="0.02" stroke-width="3.5"/>
<path d="M200.25 592H153V642H200.25V592Z" stroke="white" stroke-opacity="0.02" stroke-width="3.5"/>
<path d="M247.5 592H200.25V642H247.5V592Z" stroke="white" stroke-opacity="0.02" stroke-width="3.5"/>
<path d="M11.25 642H-36V692H11.25V642Z" stroke="white" stroke-opacity="0.02" stroke-width="3.5"/>
<path d="M58.5 642H11.25V692H58.5V642Z" stroke="white" stroke-opacity="0.02" stroke-width="3.5"/>
<path d="M105.75 642H58.5V692H105.75V642Z" stroke="white" stroke-opacity="0.02" stroke-width="3.5"/>
<path d="M153 642H105.75V692H153V642Z" stroke="white" stroke-opacity="0.02" stroke-width="3.5"/>
<path d="M200.25 642H153V692H200.25V642Z" stroke="white" stroke-opacity="0.02" stroke-width="3.5"/>
<path d="M247.5 642H200.25V692H247.5V642Z" stroke="white" stroke-opacity="0.02" stroke-width="3.5"/>
<path d="M11.25 692H-36V742H11.25V692Z" stroke="white" stroke-opacity="0.02" stroke-width="3.5"/>
<path d="M58.5 692H11.25V742H58.5V692Z" stroke="white" stroke-opacity="0.02" stroke-width="3.5"/>
<path d="M105.75 692H58.5V742H105.75V692Z" stroke="white" stroke-opacity="0.02" stroke-width="3.5"/>
<path d="M153 692H105.75V742H153V692Z" stroke="white" stroke-opacity="0.02" stroke-width="3.5"/>
<path d="M200.25 692H153V742H200.25V692Z" stroke="white" stroke-opacity="0.02" stroke-width="3.5"/>
<path d="M247.5 692H200.25V742H247.5V692Z" stroke="white" stroke-opacity="0.02" stroke-width="3.5"/>
</g>
<g opacity="0.3">
<rect x="10.5" y="593.5" width="49" height="51" fill="url(#paint1_linear_277_6132)" fill-opacity="0.55" stroke="url(#paint2_linear_277_6132)" stroke-width="3"/>
<g style="mix-blend-mode:luminosity" opacity="0.4" clip-path="url(#clip2_277_6132)">
<path d="M33.3305 603.383L15 619.381V624.331L32.9565 640V635.683L32.9869 635.651L32.9565 635.618V631.416C31.1953 630.932 29.5252 630.164 28.0121 629.142C27.0854 628.544 26.291 627.763 25.6779 626.846C25.0648 625.93 24.6459 624.899 24.447 623.815C24.2111 622.571 24.1599 621.3 24.295 620.042C24.4465 618.57 24.7714 617.121 25.2629 615.726C25.3587 615.924 26.1372 616.715 27.0933 617.593C28.6643 619.045 30.7099 620.742 30.9717 620.509C30.1477 618.985 29.6097 617.324 29.3844 615.606C29.1698 614.089 29.234 612.546 29.5737 611.052C29.575 611.049 29.5757 611.046 29.5757 611.042C29.5757 611.039 29.575 611.036 29.5737 611.033C29.9783 609.495 30.5539 608.008 31.2897 606.598C31.4182 606.341 31.5515 606.086 31.6988 605.832C32.1695 604.969 32.7156 604.15 33.3305 603.383ZM37.2346 603C37.2089 603.133 37.1902 603.268 37.1645 603.402C36.9563 604.609 36.8539 605.832 36.8582 607.057C36.8582 607.727 36.9097 608.362 36.9728 608.974C37.0996 610.055 37.3346 611.12 37.6741 612.154C39.0534 616.267 41.7185 618.153 42.0364 618.044C42.0364 618.044 42.1276 617.203 42.2048 616.108C42.3123 614.757 42.4081 613.027 42.324 612.007C43.8295 612.747 46.5974 616.274 46.9995 620.294C47.1216 621.426 47.0264 622.571 46.719 623.668C45.9078 626.509 43.4929 629.291 38.2749 631.248V639.802L56 624.331V619.381L37.2346 603Z" fill="#EFEFEF" fill-opacity="0.25"/>
<mask id="mask0_277_6132" style="mask-type:luminance" maskUnits="userSpaceOnUse" x="15" y="603" width="41" height="37">
<path d="M33.3305 603.383L15 619.381V624.331L32.9565 640V635.683L32.9869 635.651L32.9565 635.618V631.416C31.1953 630.932 29.5252 630.164 28.0121 629.142C27.0854 628.544 26.291 627.763 25.6779 626.846C25.0648 625.93 24.6459 624.899 24.447 623.815C24.2111 622.571 24.1599 621.3 24.295 620.042C24.4465 618.57 24.7714 617.121 25.2629 615.726C25.3587 615.924 26.1372 616.715 27.0933 617.593C28.6643 619.045 30.7099 620.742 30.9717 620.509C30.1477 618.985 29.6097 617.324 29.3844 615.606C29.1698 614.089 29.234 612.546 29.5737 611.052C29.575 611.049 29.5757 611.046 29.5757 611.042C29.5757 611.039 29.575 611.036 29.5737 611.033C29.9783 609.495 30.5539 608.008 31.2897 606.598C31.4182 606.341 31.5515 606.086 31.6988 605.832C32.1695 604.969 32.7156 604.15 33.3305 603.383ZM37.2346 603C37.2089 603.133 37.1902 603.268 37.1645 603.402C36.9563 604.609 36.8539 605.832 36.8582 607.057C36.8582 607.727 36.9097 608.362 36.9728 608.974C37.0996 610.055 37.3346 611.12 37.6741 612.154C39.0534 616.267 41.7185 618.153 42.0364 618.044C42.0364 618.044 42.1276 617.203 42.2048 616.108C42.3123 614.757 42.4081 613.027 42.324 612.007C43.8295 612.747 46.5974 616.274 46.9995 620.294C47.1216 621.426 47.0264 622.571 46.719 623.668C45.9078 626.509 43.4929 629.291 38.2749 631.248V639.802L56 624.331V619.381L37.2346 603Z" fill="white"/>
</mask>
<g mask="url(#mask0_277_6132)">
<path d="M56 603H15V640H56V603Z" fill="#EFEFEF" fill-opacity="0.25"/>
</g>
</g>
</g>
<g opacity="0.3">
<rect x="153.5" y="391.5" width="47" height="51" fill="url(#paint3_linear_277_6132)" fill-opacity="0.55" stroke="url(#paint4_linear_277_6132)" stroke-width="3"/>
<g style="mix-blend-mode:luminosity" opacity="0.4" clip-path="url(#clip3_277_6132)">
<path d="M174.331 398.383L156 414.381V419.331L173.956 435V430.683L173.987 430.651L173.956 430.618V426.416C172.195 425.932 170.525 425.164 169.012 424.142C168.085 423.544 167.291 422.763 166.678 421.846C166.065 420.93 165.646 419.899 165.447 418.815C165.211 417.571 165.16 416.3 165.295 415.042C165.447 413.57 165.771 412.121 166.263 410.726C166.359 410.924 167.137 411.715 168.093 412.593C169.664 414.045 171.71 415.742 171.972 415.509C171.148 413.985 170.61 412.324 170.384 410.606C170.17 409.089 170.234 407.546 170.574 406.052C170.575 406.049 170.576 406.046 170.576 406.042C170.576 406.039 170.575 406.036 170.574 406.033C170.978 404.495 171.554 403.008 172.29 401.598C172.418 401.341 172.551 401.086 172.699 400.832C173.17 399.969 173.716 399.15 174.331 398.383ZM178.235 398C178.209 398.133 178.19 398.268 178.164 398.402C177.956 399.609 177.854 400.832 177.858 402.057C177.858 402.727 177.91 403.362 177.973 403.974C178.1 405.055 178.335 406.12 178.674 407.154C180.053 411.267 182.718 413.153 183.036 413.044C183.036 413.044 183.128 412.203 183.205 411.108C183.312 409.757 183.408 408.027 183.324 407.007C184.83 407.747 187.597 411.274 188 415.294C188.122 416.426 188.026 417.571 187.719 418.668C186.908 421.509 184.493 424.291 179.275 426.248V434.802L197 419.331V414.381L178.235 398Z" fill="#EFEFEF" fill-opacity="0.25"/>
<mask id="mask1_277_6132" style="mask-type:luminance" maskUnits="userSpaceOnUse" x="156" y="398" width="41" height="37">
<path d="M174.331 398.383L156 414.381V419.331L173.956 435V430.683L173.987 430.651L173.956 430.618V426.416C172.195 425.932 170.525 425.164 169.012 424.142C168.085 423.544 167.291 422.763 166.678 421.846C166.065 420.93 165.646 419.899 165.447 418.815C165.211 417.571 165.16 416.3 165.295 415.042C165.447 413.57 165.771 412.121 166.263 410.726C166.359 410.924 167.137 411.715 168.093 412.593C169.664 414.045 171.71 415.742 171.972 415.509C171.148 413.985 170.61 412.324 170.384 410.606C170.17 409.089 170.234 407.546 170.574 406.052C170.575 406.049 170.576 406.046 170.576 406.042C170.576 406.039 170.575 406.036 170.574 406.033C170.978 404.495 171.554 403.008 172.29 401.598C172.418 401.341 172.551 401.086 172.699 400.832C173.17 399.969 173.716 399.15 174.331 398.383ZM178.235 398C178.209 398.133 178.19 398.268 178.164 398.402C177.956 399.609 177.854 400.832 177.858 402.057C177.858 402.727 177.91 403.362 177.973 403.974C178.1 405.055 178.335 406.12 178.674 407.154C180.053 411.267 182.718 413.153 183.036 413.044C183.036 413.044 183.128 412.203 183.205 411.108C183.312 409.757 183.408 408.027 183.324 407.007C184.83 407.747 187.597 411.274 188 415.294C188.122 416.426 188.026 417.571 187.719 418.668C186.908 421.509 184.493 424.291 179.275 426.248V434.802L197 419.331V414.381L178.235 398Z" fill="white"/>
</mask>
<g mask="url(#mask1_277_6132)">
<path d="M197 398H156V435H197V398Z" fill="#EFEFEF" fill-opacity="0.25"/>
</g>
</g>
</g>
<g opacity="0.3">
<rect x="58.5" y="289.5" width="47" height="51" fill="url(#paint5_linear_277_6132)" fill-opacity="0.55" stroke="url(#paint6_linear_277_6132)" stroke-width="3"/>
<g style="mix-blend-mode:luminosity" opacity="0.4" clip-path="url(#clip4_277_6132)">
<path d="M79.3305 296.383L61 312.381V317.331L78.9565 333V328.683L78.9869 328.651L78.9565 328.618V324.416C77.1953 323.932 75.5252 323.164 74.0121 322.142C73.0854 321.544 72.291 320.763 71.6779 319.846C71.0648 318.93 70.6459 317.899 70.447 316.815C70.2111 315.571 70.1599 314.3 70.295 313.042C70.4465 311.57 70.7714 310.121 71.2629 308.726C71.3587 308.924 72.1372 309.715 73.0933 310.593C74.6643 312.045 76.7099 313.742 76.9717 313.509C76.1477 311.985 75.6097 310.324 75.3844 308.606C75.1698 307.089 75.234 305.546 75.5737 304.052C75.575 304.049 75.5757 304.046 75.5757 304.042C75.5757 304.039 75.575 304.036 75.5737 304.033C75.9783 302.495 76.5539 301.008 77.2897 299.598C77.4182 299.341 77.5515 299.086 77.6988 298.832C78.1695 297.969 78.7156 297.15 79.3305 296.383ZM83.2346 296C83.2089 296.133 83.1902 296.268 83.1645 296.402C82.9563 297.609 82.8539 298.832 82.8582 300.057C82.8582 300.727 82.9097 301.362 82.9728 301.974C83.0996 303.055 83.3346 304.12 83.6741 305.154C85.0534 309.267 87.7185 311.153 88.0364 311.044C88.0364 311.044 88.1276 310.203 88.2048 309.108C88.3123 307.757 88.4081 306.027 88.324 305.007C89.8295 305.747 92.5974 309.274 92.9995 313.294C93.1216 314.426 93.0264 315.571 92.719 316.668C91.9078 319.509 89.4929 322.291 84.2749 324.248V332.802L102 317.331V312.381L83.2346 296Z" fill="#EFEFEF" fill-opacity="0.25"/>
<mask id="mask2_277_6132" style="mask-type:luminance" maskUnits="userSpaceOnUse" x="61" y="296" width="41" height="37">
<path d="M79.3305 296.383L61 312.381V317.331L78.9565 333V328.683L78.9869 328.651L78.9565 328.618V324.416C77.1953 323.932 75.5252 323.164 74.0121 322.142C73.0854 321.544 72.291 320.763 71.6779 319.846C71.0648 318.93 70.6459 317.899 70.447 316.815C70.2111 315.571 70.1599 314.3 70.295 313.042C70.4465 311.57 70.7714 310.121 71.2629 308.726C71.3587 308.924 72.1372 309.715 73.0933 310.593C74.6643 312.045 76.7099 313.742 76.9717 313.509C76.1477 311.985 75.6097 310.324 75.3844 308.606C75.1698 307.089 75.234 305.546 75.5737 304.052C75.575 304.049 75.5757 304.046 75.5757 304.042C75.5757 304.039 75.575 304.036 75.5737 304.033C75.9783 302.495 76.5539 301.008 77.2897 299.598C77.4182 299.341 77.5515 299.086 77.6988 298.832C78.1695 297.969 78.7156 297.15 79.3305 296.383ZM83.2346 296C83.2089 296.133 83.1902 296.268 83.1645 296.402C82.9563 297.609 82.8539 298.832 82.8582 300.057C82.8582 300.727 82.9097 301.362 82.9728 301.974C83.0996 303.055 83.3346 304.12 83.6741 305.154C85.0534 309.267 87.7185 311.153 88.0364 311.044C88.0364 311.044 88.1276 310.203 88.2048 309.108C88.3123 307.757 88.4081 306.027 88.324 305.007C89.8295 305.747 92.5974 309.274 92.9995 313.294C93.1216 314.426 93.0264 315.571 92.719 316.668C91.9078 319.509 89.4929 322.291 84.2749 324.248V332.802L102 317.331V312.381L83.2346 296Z" fill="white"/>
</mask>
<g mask="url(#mask2_277_6132)">
<path d="M102 296H61V333H102V296Z" fill="#EFEFEF" fill-opacity="0.25"/>
</g>
</g>
</g>
<rect y="173" width="236" height="109" fill="url(#paint7_linear_277_6132)"/>
<g filter="url(#filter0_f_277_6132)">
<rect x="-77" y="267" width="373" height="37" fill="#22044E"/>
</g>
</g>
</g>
<defs>
<filter id="filter0_f_277_6132" x="-107" y="237" width="433" height="97" filterUnits="userSpaceOnUse" color-interpolation-filters="sRGB">
<feFlood flood-opacity="0" result="BackgroundImageFix"/>
<feBlend mode="normal" in="SourceGraphic" in2="BackgroundImageFix" result="shape"/>
<feGaussianBlur stdDeviation="15" result="effect1_foregroundBlur_277_6132"/>
</filter>
<linearGradient id="paint0_linear_277_6132" x1="0" y1="0" x2="175" y2="582" gradientUnits="userSpaceOnUse">
<stop stop-color="#470179"/>
<stop offset="1" stop-color="#020628"/>
</linearGradient>
<linearGradient id="paint1_linear_277_6132" x1="19.1555" y1="592" x2="44.5611" y2="628.447" gradientUnits="userSpaceOnUse">
<stop stop-color="#7A1DB7"/>
<stop offset="1" stop-color="#4537B7"/>
</linearGradient>
<linearGradient id="paint2_linear_277_6132" x1="9" y1="592" x2="57.2603" y2="647.882" gradientUnits="userSpaceOnUse">
<stop stop-color="#4B187E"/>
<stop offset="1" stop-color="#272177"/>
</linearGradient>
<linearGradient id="paint3_linear_277_6132" x1="161.765" y1="390" x2="187.5" y2="425.5" gradientUnits="userSpaceOnUse">
<stop stop-color="#7A1DB7"/>
<stop offset="1" stop-color="#4537B7"/>
</linearGradient>
<linearGradient id="paint4_linear_277_6132" x1="152" y1="390" x2="200.5" y2="444" gradientUnits="userSpaceOnUse">
<stop stop-color="#4B187E"/>
<stop offset="1" stop-color="#272177"/>
</linearGradient>
<linearGradient id="paint5_linear_277_6132" x1="66.7649" y1="288" x2="92.5" y2="323.5" gradientUnits="userSpaceOnUse">
<stop stop-color="#7A1DB7"/>
<stop offset="1" stop-color="#4537B7"/>
</linearGradient>
<linearGradient id="paint6_linear_277_6132" x1="57" y1="288" x2="105.5" y2="342" gradientUnits="userSpaceOnUse">
<stop stop-color="#4B187E"/>
<stop offset="1" stop-color="#272177"/>
</linearGradient>
<linearGradient id="paint7_linear_277_6132" x1="118" y1="211.002" x2="118" y2="320.804" gradientUnits="userSpaceOnUse">
<stop stop-color="#2E035C"/>
<stop offset="1" stop-color="#22044E"/>
</linearGradient>
<clipPath id="clip0_277_6132">
<rect width="236" height="720" fill="white"/>
</clipPath>
<clipPath id="clip1_277_6132">
<rect width="567" height="600" fill="white" transform="translate(-225 192)"/>
</clipPath>
<clipPath id="clip2_277_6132">
<rect width="41" height="37" fill="white" transform="translate(15 603)"/>
</clipPath>
<clipPath id="clip3_277_6132">
<rect width="41" height="37" fill="white" transform="translate(156 398)"/>
</clipPath>
<clipPath id="clip4_277_6132">
<rect width="41" height="37" fill="white" transform="translate(61 296)"/>
</clipPath>
</defs>
</svg>