<svg width="256" height="256" viewBox="0 0 256 256" fill="none" xmlns="http://www.w3.org/2000/svg">
<g clip-path="url(#clip0_102_43)">
<g clip-path="url(#clip1_102_43)">
<path d="M126.916 0.572021C62.084 0.572021 66.132 28.687 66.132 28.687L66.204 57.815H128.072V66.56H41.631C41.631 66.56 0.14502 61.855 0.14502 127.27C0.14502 192.687 36.355 190.367 36.355 190.367H57.965V160.011C57.965 160.011 56.8 123.801 93.597 123.801H154.959C154.959 123.801 189.434 124.358 189.434 90.482V34.47C189.434 34.47 194.67 0.572021 126.916 0.572021ZM92.802 20.16C94.264 20.1587 95.7119 20.4457 97.0628 21.0046C98.4138 21.5634 99.6413 22.3832 100.675 23.417C101.709 24.4508 102.529 25.6783 103.087 27.0292C103.646 28.3801 103.933 29.828 103.932 31.29C103.933 32.752 103.646 34.1999 103.087 35.5508C102.529 36.9018 101.709 38.1293 100.675 39.1631C99.6413 40.1968 98.4138 41.0166 97.0628 41.5755C95.7119 42.1344 94.264 42.4213 92.802 42.42C91.34 42.4213 89.8921 42.1344 88.5412 41.5755C87.1903 41.0166 85.9628 40.1968 84.929 39.1631C83.8952 38.1293 83.0754 36.9018 82.5166 35.5508C81.9577 34.1999 81.6707 32.752 81.672 31.29C81.6707 29.828 81.9577 28.3801 82.5166 27.0292C83.0754 25.6783 83.8952 24.4508 84.929 23.417C85.9628 22.3832 87.1903 21.5634 88.5412 21.0046C89.8921 20.4457 91.34 20.1587 92.802 20.16Z" fill="url(#paint0_linear_102_43)"/>
<path d="M128.757 254.626C193.589 254.626 189.541 226.511 189.541 226.511L189.469 197.384H127.6V188.639H214.041C214.041 188.639 255.527 193.344 255.527 127.927C255.527 62.511 219.317 64.831 219.317 64.831H197.707V95.186C197.707 95.186 198.872 131.396 162.075 131.396H100.713C100.713 131.396 66.2381 130.839 66.2381 164.716V220.729C66.2381 220.729 61.0031 254.626 128.756 254.626M162.87 235.04C161.408 235.041 159.96 234.754 158.609 234.195C157.258 233.637 156.031 232.817 154.997 231.783C153.963 230.749 153.143 229.522 152.585 228.171C152.026 226.82 151.739 225.372 151.74 223.91C151.739 222.448 152.026 221 152.584 219.649C153.143 218.298 153.963 217.07 154.997 216.036C156.03 215.002 157.258 214.183 158.609 213.624C159.96 213.065 161.408 212.778 162.87 212.779C164.332 212.778 165.78 213.065 167.131 213.624C168.482 214.182 169.709 215.002 170.743 216.036C171.777 217.07 172.597 218.297 173.156 219.648C173.714 220.999 174.001 222.447 174 223.909C174.001 225.371 173.714 226.819 173.156 228.17C172.597 229.521 171.777 230.748 170.743 231.782C169.709 232.816 168.482 233.636 167.131 234.194C165.78 234.753 164.332 235.041 162.87 235.04Z" fill="url(#paint1_linear_102_43)"/>
</g>
</g>
<defs>
<linearGradient id="paint0_linear_102_43" x1="2454.36" y1="2285.64" x2="15110.3" y2="14815.3" gradientUnits="userSpaceOnUse">
<stop stop-color="#387EB8"/>
<stop offset="1" stop-color="#366994"/>
</linearGradient>
<linearGradient id="paint1_linear_102_43" x1="3688.66" y1="3970.82" x2="17279.7" y2="16818.9" gradientUnits="userSpaceOnUse">
<stop stop-color="#FFE052"/>
<stop offset="1" stop-color="#FFC331"/>
</linearGradient>
<clipPath id="clip0_102_43">
<rect width="256" height="256" fill="white"/>
</clipPath>
<clipPath id="clip1_102_43">
<rect width="256" height="255" fill="white" transform="translate(0 0.5)"/>
</clipPath>
</defs>
</svg>
