<svg width="256" height="256" viewBox="0 0 256 256" fill="none" xmlns="http://www.w3.org/2000/svg">
<g clip-path="url(#clip0_102_2)">
<g clip-path="url(#clip1_102_2)">
<path d="M128.001 150.652C140.631 150.652 150.868 140.414 150.868 127.785C150.868 115.157 140.631 104.919 128.001 104.919C115.373 104.919 105.135 115.157 105.135 127.785C105.135 140.414 115.373 150.652 128.001 150.652Z" fill="#00D8FF"/>
<path d="M128.002 81.293C158.704 81.293 187.224 85.6981 208.729 93.1025C234.639 102.022 250.569 115.542 250.569 127.786C250.569 140.544 233.686 154.908 205.862 164.126C184.827 171.096 157.146 174.734 128.002 174.734C98.1225 174.734 69.8275 171.319 48.5544 164.049C21.6407 154.85 5.43091 140.301 5.43091 127.786C5.43091 115.642 20.6417 102.225 46.1876 93.3195C67.772 85.7937 96.9961 81.293 127.998 81.293H128.002Z" stroke="#00D8FF" stroke-width="10.9221"/>
<path d="M87.529 104.672C102.867 78.0774 120.93 55.5713 138.088 40.6424C158.758 22.6529 178.43 15.6077 189.035 21.7226C200.087 28.0962 204.096 49.8988 198.182 78.6069C193.714 100.31 183.034 126.106 168.474 151.353C153.546 177.237 136.454 200.042 119.531 214.834C98.1165 233.553 77.4134 240.327 66.5722 234.075C56.052 228.013 52.0293 208.131 57.0767 181.551C61.3409 159.093 72.0424 131.529 87.5241 104.672H87.529Z" stroke="#00D8FF" stroke-width="10.9221"/>
<path d="M87.567 151.421C72.1858 124.855 61.7135 97.9609 57.3427 75.6411C52.0808 48.7482 55.8007 28.1872 66.3968 22.0539C77.4391 15.6607 98.3285 23.0761 120.246 42.5376C136.818 57.2508 153.834 79.3831 168.436 104.605C183.406 130.465 194.626 156.664 198.991 178.712C204.514 206.613 200.044 227.932 189.212 234.201C178.703 240.286 159.471 233.845 138.964 216.197C121.637 201.288 103.1 178.251 87.567 151.421Z" stroke="#00D8FF" stroke-width="10.9221"/>
</g>
</g>
<defs>
<clipPath id="clip0_102_2">
<rect width="256" height="256" fill="white"/>
</clipPath>
<clipPath id="clip1_102_2">
<rect width="256" height="256" fill="white"/>
</clipPath>
</defs>
</svg>
