<svg width="256" height="256" viewBox="0 0 256 256" fill="none" xmlns="http://www.w3.org/2000/svg">
<g clip-path="url(#clip0_103_60)">
<g clip-path="url(#clip1_103_60)">
<path d="M128.008 51.2041C93.8738 51.2041 72.5478 68.2641 64.0078 102.398C76.8038 85.3361 91.7418 78.9381 108.804 83.2041C118.546 85.6321 125.508 92.6961 133.218 100.524C145.766 113.258 160.29 128 192.008 128C226.14 128 247.468 110.938 256.008 76.7961C243.208 93.8668 228.275 100.268 211.21 96.0001C201.47 93.5701 194.516 86.5081 186.796 78.6801C174.256 65.9461 159.736 51.2041 128.008 51.2041ZM64.0078 128C29.8758 128 8.54781 145.062 0.0078125 179.204C12.8065 162.133 27.7385 155.732 44.8038 160C54.5458 162.43 61.5078 169.492 69.2178 177.32C81.7658 190.054 96.2898 204.796 128.008 204.796C162.14 204.796 183.468 187.736 192.008 153.602C179.208 170.665 164.275 177.063 147.21 172.796C137.47 170.368 130.516 163.304 122.796 155.476C110.256 142.742 95.7358 128 64.0078 128Z" fill="#38BDF8"/>
</g>
</g>
<defs>
<clipPath id="clip0_103_60">
<rect width="256" height="256" fill="white"/>
</clipPath>
<clipPath id="clip1_103_60">
<rect width="256" height="256" fill="white"/>
</clipPath>
</defs>
</svg>
