<svg width="1204" height="247" viewBox="0 0 1204 247" fill="none" xmlns="http://www.w3.org/2000/svg">
<g clip-path="url(#clip0_275_272)">
<rect width="1204" height="247" fill="url(#paint0_linear_275_272)"/>
<g opacity="0.1" clip-path="url(#clip1_275_272)">
<path d="M914.667 -6H848V60.6667H914.667V-6Z" stroke="#DADBDD" stroke-width="3.5"/>
<path d="M1048 -6H981.333V60.6667H1048V-6Z" stroke="#DADBDD" stroke-width="3.5"/>
<path d="M1114.67 -6H1048V60.6667H1114.67V-6Z" stroke="#DADBDD" stroke-width="3.5"/>
<path d="M1181.33 -6H1114.67V60.6667H1181.33V-6Z" stroke="#DADBDD" stroke-width="3.5"/>
<path d="M1248 -6H1181.33V60.6667H1248V-6Z" stroke="#DADBDD" stroke-width="3.5"/>
<path d="M914.667 60.6667H848V127.333H914.667V60.6667Z" stroke="#DADBDD" stroke-width="3.5"/>
<path d="M981.333 60.6667H914.667V127.333H981.333V60.6667Z" stroke="#DADBDD" stroke-width="3.5"/>
<path d="M1048 60.6667H981.333V127.333H1048V60.6667Z" stroke="#DADBDD" stroke-width="3.5"/>
<path d="M1181.33 60.6667H1114.67V127.333H1181.33V60.6667Z" stroke="#DADBDD" stroke-width="3.5"/>
<path d="M1248 60.6667H1181.33V127.333H1248V60.6667Z" stroke="#DADBDD" stroke-width="3.5"/>
<path d="M914.667 127.333H848V194H914.667V127.333Z" stroke="#DADBDD" stroke-width="3.5"/>
<path d="M981.333 127.333H914.667V194H981.333V127.333Z" stroke="#DADBDD" stroke-width="3.5"/>
<path d="M1048 127.333H981.333V194H1048V127.333Z" stroke="#DADBDD" stroke-width="3.5"/>
<path d="M1114.67 127.333H1048V194H1114.67V127.333Z" stroke="#DADBDD" stroke-width="3.5"/>
<path d="M1181.33 127.333H1114.67V194H1181.33V127.333Z" stroke="#DADBDD" stroke-width="3.5"/>
<path d="M1248 127.333H1181.33V194H1248V127.333Z" stroke="#DADBDD" stroke-width="3.5"/>
<path d="M914.667 194H848V260.667H914.667V194Z" stroke="#DADBDD" stroke-width="3.5"/>
<path d="M981.333 194H914.667V260.667H981.333V194Z" stroke="#DADBDD" stroke-width="3.5"/>
<path d="M1048 194H981.333V260.667H1048V194Z" stroke="#DADBDD" stroke-width="3.5"/>
<path d="M1114.67 194H1048V260.667H1114.67V194Z" stroke="#DADBDD" stroke-width="3.5"/>
<path d="M1181.33 194H1114.67V260.667H1181.33V194Z" stroke="#DADBDD" stroke-width="3.5"/>
<path d="M1248 194H1181.33V260.667H1248V194Z" stroke="#DADBDD" stroke-width="3.5"/>
<g filter="url(#filter0_f_275_272)">
<rect x="829" y="-28" width="37" height="291" fill="#04082A"/>
</g>
</g>
<g opacity="0.75">
<rect x="912" width="71" height="61" fill="url(#paint1_linear_275_272)" fill-opacity="0.55"/>
<rect x="913.5" y="1.5" width="68" height="58" stroke="#DADBDD" stroke-opacity="0.1" stroke-width="3"/>
<g style="mix-blend-mode:luminosity" opacity="0.4" clip-path="url(#clip2_275_272)">
<path d="M945.331 12.3829L927 28.3814V33.3306L944.956 49V44.6834L944.987 44.6508L944.956 44.6181V40.4159C943.195 39.932 941.525 39.1639 940.012 38.1421C939.085 37.5439 938.291 36.7627 937.678 35.8465C937.065 34.9303 936.646 33.8986 936.447 32.8147C936.211 31.5714 936.16 30.3002 936.295 29.0421C936.447 27.5702 936.771 26.1214 937.263 24.7255C937.359 24.924 938.137 25.7154 939.093 26.5932C940.664 28.0452 942.71 29.7424 942.972 29.509C942.148 27.9851 941.61 26.3236 941.384 24.6065C941.17 23.0894 941.234 21.5459 941.574 20.0518C941.575 20.0489 941.576 20.0457 941.576 20.0425C941.576 20.0392 941.575 20.0361 941.574 20.0331C941.978 18.4953 942.554 17.0075 943.29 15.5975C943.418 15.3407 943.551 15.0863 943.699 14.8318C944.17 13.9692 944.716 13.1497 945.331 12.3829ZM949.235 12C949.209 12.1331 949.19 12.2685 949.164 12.4015C948.956 13.609 948.854 14.8322 948.858 16.0574C948.858 16.7274 948.91 17.3624 948.973 17.9741C949.1 19.0547 949.335 20.1199 949.674 21.1537C951.053 25.2671 953.718 27.1534 954.036 27.0437C954.036 27.0437 954.128 26.2033 954.205 25.1084C954.312 23.7567 954.408 22.0268 954.324 21.0066C955.83 21.7467 958.597 25.2741 959 29.2942C959.122 30.4263 959.026 31.5712 958.719 32.6676C957.908 35.5087 955.493 38.2915 950.275 40.2478V48.8016L968 33.3306V28.3814L949.235 12Z" fill="#EFEFEF" fill-opacity="0.25"/>
<mask id="mask0_275_272" style="mask-type:luminance" maskUnits="userSpaceOnUse" x="927" y="12" width="41" height="37">
<path d="M945.331 12.3829L927 28.3814V33.3306L944.956 49V44.6834L944.987 44.6508L944.956 44.6181V40.4159C943.195 39.932 941.525 39.1639 940.012 38.1421C939.085 37.5439 938.291 36.7627 937.678 35.8465C937.065 34.9303 936.646 33.8986 936.447 32.8147C936.211 31.5714 936.16 30.3002 936.295 29.0421C936.447 27.5702 936.771 26.1214 937.263 24.7255C937.359 24.924 938.137 25.7154 939.093 26.5932C940.664 28.0452 942.71 29.7424 942.972 29.509C942.148 27.9851 941.61 26.3236 941.384 24.6065C941.17 23.0894 941.234 21.5459 941.574 20.0518C941.575 20.0489 941.576 20.0457 941.576 20.0425C941.576 20.0392 941.575 20.0361 941.574 20.0331C941.978 18.4953 942.554 17.0075 943.29 15.5975C943.418 15.3407 943.551 15.0863 943.699 14.8318C944.17 13.9692 944.716 13.1497 945.331 12.3829ZM949.235 12C949.209 12.1331 949.19 12.2685 949.164 12.4015C948.956 13.609 948.854 14.8322 948.858 16.0574C948.858 16.7274 948.91 17.3624 948.973 17.9741C949.1 19.0547 949.335 20.1199 949.674 21.1537C951.053 25.2671 953.718 27.1534 954.036 27.0437C954.036 27.0437 954.128 26.2033 954.205 25.1084C954.312 23.7567 954.408 22.0268 954.324 21.0066C955.83 21.7467 958.597 25.2741 959 29.2942C959.122 30.4263 959.026 31.5712 958.719 32.6676C957.908 35.5087 955.493 38.2915 950.275 40.2478V48.8016L968 33.3306V28.3814L949.235 12Z" fill="white"/>
</mask>
<g mask="url(#mask0_275_272)">
<path d="M968 12H927V49H968V12Z" fill="#EFEFEF" fill-opacity="0.25"/>
</g>
</g>
</g>
<g opacity="0.75">
<rect x="1046" y="59" width="71" height="70" fill="url(#paint2_linear_275_272)" fill-opacity="0.55"/>
<rect x="1047.5" y="60.5" width="68" height="67" stroke="#DADBDD" stroke-opacity="0.1" stroke-width="3"/>
<g style="mix-blend-mode:luminosity" opacity="0.4" clip-path="url(#clip3_275_272)">
<path d="M1079.33 76.3829L1061 92.3814V97.3306L1078.96 113V108.683L1078.99 108.651L1078.96 108.618V104.416C1077.2 103.932 1075.53 103.164 1074.01 102.142C1073.09 101.544 1072.29 100.763 1071.68 99.8465C1071.06 98.9303 1070.65 97.8986 1070.45 96.8147C1070.21 95.5714 1070.16 94.3002 1070.3 93.0421C1070.45 91.5702 1070.77 90.1214 1071.26 88.7255C1071.36 88.924 1072.14 89.7154 1073.09 90.5932C1074.66 92.0452 1076.71 93.7424 1076.97 93.509C1076.15 91.9851 1075.61 90.3236 1075.38 88.6065C1075.17 87.0894 1075.23 85.5459 1075.57 84.0518C1075.58 84.0489 1075.58 84.0457 1075.58 84.0425C1075.58 84.0392 1075.58 84.0361 1075.57 84.0331C1075.98 82.4953 1076.55 81.0075 1077.29 79.5975C1077.42 79.3407 1077.55 79.0863 1077.7 78.8318C1078.17 77.9692 1078.72 77.1497 1079.33 76.3829ZM1083.23 76C1083.21 76.1331 1083.19 76.2685 1083.16 76.4015C1082.96 77.609 1082.85 78.8322 1082.86 80.0574C1082.86 80.7274 1082.91 81.3624 1082.97 81.9741C1083.1 83.0547 1083.33 84.1199 1083.67 85.1537C1085.05 89.2671 1087.72 91.1534 1088.04 91.0437C1088.04 91.0437 1088.13 90.2033 1088.2 89.1084C1088.31 87.7567 1088.41 86.0268 1088.32 85.0066C1089.83 85.7467 1092.6 89.2741 1093 93.2942C1093.12 94.4263 1093.03 95.5712 1092.72 96.6676C1091.91 99.5087 1089.49 102.292 1084.27 104.248V112.802L1102 97.3306V92.3814L1083.23 76Z" fill="#EFEFEF" fill-opacity="0.25"/>
<mask id="mask1_275_272" style="mask-type:luminance" maskUnits="userSpaceOnUse" x="1061" y="76" width="41" height="37">
<path d="M1079.33 76.3829L1061 92.3814V97.3306L1078.96 113V108.683L1078.99 108.651L1078.96 108.618V104.416C1077.2 103.932 1075.53 103.164 1074.01 102.142C1073.09 101.544 1072.29 100.763 1071.68 99.8465C1071.06 98.9303 1070.65 97.8986 1070.45 96.8147C1070.21 95.5714 1070.16 94.3002 1070.3 93.0421C1070.45 91.5702 1070.77 90.1214 1071.26 88.7255C1071.36 88.924 1072.14 89.7154 1073.09 90.5932C1074.66 92.0452 1076.71 93.7424 1076.97 93.509C1076.15 91.9851 1075.61 90.3236 1075.38 88.6065C1075.17 87.0894 1075.23 85.5459 1075.57 84.0518C1075.58 84.0489 1075.58 84.0457 1075.58 84.0425C1075.58 84.0392 1075.58 84.0361 1075.57 84.0331C1075.98 82.4953 1076.55 81.0075 1077.29 79.5975C1077.42 79.3407 1077.55 79.0863 1077.7 78.8318C1078.17 77.9692 1078.72 77.1497 1079.33 76.3829ZM1083.23 76C1083.21 76.1331 1083.19 76.2685 1083.16 76.4015C1082.96 77.609 1082.85 78.8322 1082.86 80.0574C1082.86 80.7274 1082.91 81.3624 1082.97 81.9741C1083.1 83.0547 1083.33 84.1199 1083.67 85.1537C1085.05 89.2671 1087.72 91.1534 1088.04 91.0437C1088.04 91.0437 1088.13 90.2033 1088.2 89.1084C1088.31 87.7567 1088.41 86.0268 1088.32 85.0066C1089.83 85.7467 1092.6 89.2741 1093 93.2942C1093.12 94.4263 1093.03 95.5712 1092.72 96.6676C1091.91 99.5087 1089.49 102.292 1084.27 104.248V112.802L1102 97.3306V92.3814L1083.23 76Z" fill="white"/>
</mask>
<g mask="url(#mask1_275_272)">
<path d="M1102 76H1061V113H1102V76Z" fill="#EFEFEF" fill-opacity="0.25"/>
</g>
</g>
</g>
</g>
<defs>
<filter id="filter0_f_275_272" x="811" y="-46" width="73" height="327" filterUnits="userSpaceOnUse" color-interpolation-filters="sRGB">
<feFlood flood-opacity="0" result="BackgroundImageFix"/>
<feBlend mode="normal" in="SourceGraphic" in2="BackgroundImageFix" result="shape"/>
<feGaussianBlur stdDeviation="9" result="effect1_foregroundBlur_275_272"/>
</filter>
<linearGradient id="paint0_linear_275_272" x1="2.39483e-08" y1="123.5" x2="1278.96" y2="113.055" gradientUnits="userSpaceOnUse">
<stop offset="0.509865" stop-color="#090630"/>
<stop offset="1" stop-color="#3F026F"/>
</linearGradient>
<linearGradient id="paint1_linear_275_272" x1="925.866" y1="4.33692e-07" x2="952.341" y2="45.9084" gradientUnits="userSpaceOnUse">
<stop stop-color="#7A1DB7"/>
<stop offset="1" stop-color="#4537B7"/>
</linearGradient>
<linearGradient id="paint2_linear_275_272" x1="1059.87" y1="59" x2="1092.18" y2="107.821" gradientUnits="userSpaceOnUse">
<stop stop-color="#7A1DB7"/>
<stop offset="1" stop-color="#4537B7"/>
</linearGradient>
<clipPath id="clip0_275_272">
<rect width="1204" height="247" fill="white"/>
</clipPath>
<clipPath id="clip1_275_272">
<rect width="800" height="800" fill="white" transform="translate(848 -206)"/>
</clipPath>
<clipPath id="clip2_275_272">
<rect width="41" height="37" fill="white" transform="translate(927 12)"/>
</clipPath>
<clipPath id="clip3_275_272">
<rect width="41" height="37" fill="white" transform="translate(1061 76)"/>
</clipPath>
</defs>
</svg>