<svg width="481" height="65" viewBox="0 0 481 65" fill="none" xmlns="http://www.w3.org/2000/svg">
<g clip-path="url(#clip0_130_47)">
<path d="M89.1484 33.589C89.1484 34.4322 89.0957 35.3105 88.9903 36.224H68.596C68.7365 38.0508 69.3162 39.4561 70.335 40.4398C71.389 41.3884 72.6713 41.8627 74.182 41.8627C76.4305 41.8627 77.9939 40.9141 78.8722 39.017H88.4634C87.9715 40.9493 87.0756 42.6883 85.7757 44.2341C84.511 45.78 82.9124 46.992 80.9801 47.8704C79.0479 48.7487 76.8872 49.1878 74.4982 49.1878C71.6173 49.1878 69.0527 48.573 66.8042 47.3434C64.5557 46.1137 62.7991 44.3571 61.5343 42.0735C60.2696 39.7899 59.6372 37.1198 59.6372 34.0633C59.6372 31.0068 60.252 28.3367 61.4816 26.0531C62.7464 23.7695 64.503 22.0129 66.7515 20.7832C69 19.5536 71.5822 18.9388 74.4982 18.9388C77.3439 18.9388 79.8735 19.536 82.0868 20.7305C84.3002 21.925 86.0217 23.629 87.2513 25.8423C88.5161 28.0557 89.1484 30.6379 89.1484 33.589ZM79.9262 31.2176C79.9262 29.6718 79.3992 28.4421 78.3452 27.5287C77.2912 26.6152 75.9738 26.1585 74.3928 26.1585C72.8821 26.1585 71.5998 26.5977 70.5458 27.476C69.527 28.3543 68.8946 29.6015 68.6487 31.2176H79.9262ZM107.13 40.3344L113.506 19.3604H123.097L112.663 48.7662H101.544L91.1094 19.3604H100.753L107.13 40.3344ZM136.53 30.2163C136.53 26.5625 137.32 23.3128 138.901 20.467C140.482 17.5862 142.678 15.3553 145.489 13.7743C148.334 12.1582 151.549 11.3502 155.133 11.3502C159.524 11.3502 163.283 12.5095 166.41 14.8283C169.537 17.147 171.627 20.309 172.681 24.3141H162.774C162.036 22.7682 160.982 21.5913 159.612 20.7832C158.277 19.9752 156.749 19.5712 155.027 19.5712C152.252 19.5712 150.003 20.5373 148.282 22.4696C146.56 24.4019 145.699 26.9841 145.699 30.2163C145.699 33.4485 146.56 36.0307 148.282 37.963C150.003 39.8953 152.252 40.8614 155.027 40.8614C156.749 40.8614 158.277 40.4574 159.612 39.6494C160.982 38.8413 162.036 37.6644 162.774 36.1186H172.681C171.627 40.1237 169.537 43.2856 166.41 45.6043C163.283 47.8879 159.524 49.0297 155.133 49.0297C151.549 49.0297 148.334 48.2392 145.489 46.6583C142.678 45.0422 140.482 42.8113 138.901 39.9656C137.32 37.1198 136.53 33.8701 136.53 30.2163ZM196.275 19.0442C199.648 19.0442 202.353 20.1684 204.391 22.4169C206.429 24.6302 207.447 27.6868 207.447 31.5865V48.7662H198.489V32.7985C198.489 30.8311 197.979 29.3029 196.96 28.2138C195.942 27.1246 194.571 26.5801 192.85 26.5801C191.128 26.5801 189.758 27.1246 188.739 28.2138C187.721 29.3029 187.211 30.8311 187.211 32.7985V48.7662H178.2V9.76922H187.211V23.3128C188.125 22.0129 189.372 20.9765 190.953 20.2036C192.534 19.4306 194.308 19.0442 196.275 19.0442ZM211.918 34.0106C211.918 30.9892 212.48 28.3367 213.604 26.0531C214.764 23.7695 216.327 22.0129 218.294 20.7832C220.262 19.5536 222.458 18.9388 224.882 18.9388C226.954 18.9388 228.764 19.3604 230.31 20.2036C231.891 21.0467 233.103 22.1534 233.946 23.5236V19.3604H242.957V48.7662H233.946V44.603C233.068 45.9732 231.838 47.0799 230.257 47.9231C228.711 48.7662 226.902 49.1878 224.829 49.1878C222.44 49.1878 220.262 48.573 218.294 47.3434C216.327 46.0786 214.764 44.3044 213.604 42.0208C212.48 39.7021 211.918 37.032 211.918 34.0106ZM233.946 34.0633C233.946 31.8148 233.313 30.0406 232.049 28.7407C230.819 27.4408 229.308 26.7909 227.517 26.7909C225.725 26.7909 224.197 27.4408 222.932 28.7407C221.702 30.0055 221.087 31.7621 221.087 34.0106C221.087 36.2591 221.702 38.0508 222.932 39.3859C224.197 40.6858 225.725 41.3357 227.517 41.3357C229.308 41.3357 230.819 40.6858 232.049 39.3859C233.313 38.086 233.946 36.3118 233.946 34.0633ZM258.488 9.76922V48.7662H249.477V9.76922H258.488ZM274.03 9.76922V48.7662H265.019V9.76922H274.03ZM308.28 33.589C308.28 34.4322 308.228 35.3105 308.122 36.224H287.728C287.868 38.0508 288.448 39.4561 289.467 40.4398C290.521 41.3884 291.803 41.8627 293.314 41.8627C295.562 41.8627 297.126 40.9141 298.004 39.017H307.595C307.103 40.9493 306.207 42.6883 304.908 44.2341C303.643 45.78 302.044 46.992 300.112 47.8704C298.18 48.7487 296.019 49.1878 293.63 49.1878C290.749 49.1878 288.184 48.573 285.936 47.3434C283.688 46.1137 281.931 44.3571 280.666 42.0735C279.401 39.7899 278.769 37.1198 278.769 34.0633C278.769 31.0068 279.384 28.3367 280.613 26.0531C281.878 23.7695 283.635 22.0129 285.883 20.7832C288.132 19.5536 290.714 18.9388 293.63 18.9388C296.476 18.9388 299.005 19.536 301.219 20.7305C303.432 21.925 305.153 23.629 306.383 25.8423C307.648 28.0557 308.28 30.6379 308.28 33.589ZM299.058 31.2176C299.058 29.6718 298.531 28.4421 297.477 27.5287C296.423 26.6152 295.106 26.1585 293.525 26.1585C292.014 26.1585 290.732 26.5977 289.678 27.476C288.659 28.3543 288.026 29.6015 287.78 31.2176H299.058ZM330.952 19.0442C334.395 19.0442 337.135 20.1684 339.173 22.4169C341.246 24.6302 342.282 27.6868 342.282 31.5865V48.7662H333.323V32.7985C333.323 30.8311 332.814 29.3029 331.795 28.2138C330.776 27.1246 329.406 26.5801 327.684 26.5801C325.963 26.5801 324.593 27.1246 323.574 28.2138C322.555 29.3029 322.046 30.8311 322.046 32.7985V48.7662H313.034V19.3604H322.046V23.2601C322.959 21.9602 324.189 20.9413 325.735 20.2036C327.28 19.4306 329.019 19.0442 330.952 19.0442ZM359.716 18.9388C361.789 18.9388 363.598 19.3604 365.144 20.2036C366.725 21.0467 367.937 22.1534 368.78 23.5236V19.3604H377.792V48.7135C377.792 51.4187 377.247 53.8604 376.158 56.0387C375.104 58.252 373.471 60.0086 371.257 61.3085C369.079 62.6084 366.356 63.2584 363.089 63.2584C358.732 63.2584 355.202 62.222 352.496 60.1491C349.791 58.1115 348.245 55.336 347.859 51.8228H356.765C357.046 52.947 357.714 53.8253 358.768 54.4577C359.822 55.1252 361.121 55.459 362.667 55.459C364.529 55.459 366.005 54.9144 367.094 53.8253C368.218 52.7713 368.78 51.0674 368.78 48.7135V44.5503C367.902 45.9205 366.69 47.0447 365.144 47.9231C363.598 48.7662 361.789 49.1878 359.716 49.1878C357.292 49.1878 355.096 48.573 353.129 47.3434C351.161 46.0786 349.598 44.3044 348.439 42.0208C347.314 39.7021 346.752 37.032 346.752 34.0106C346.752 30.9892 347.314 28.3367 348.439 26.0531C349.598 23.7695 351.161 22.0129 353.129 20.7832C355.096 19.5536 357.292 18.9388 359.716 18.9388ZM368.78 34.0633C368.78 31.8148 368.148 30.0406 366.883 28.7407C365.654 27.4408 364.143 26.7909 362.351 26.7909C360.559 26.7909 359.031 27.4408 357.766 28.7407C356.537 30.0055 355.922 31.7621 355.922 34.0106C355.922 36.2591 356.537 38.0508 357.766 39.3859C359.031 40.6858 360.559 41.3357 362.351 41.3357C364.143 41.3357 365.654 40.6858 366.883 39.3859C368.148 38.086 368.78 36.3118 368.78 34.0633ZM412.031 33.589C412.031 34.4322 411.978 35.3105 411.873 36.224H391.478C391.619 38.0508 392.198 39.4561 393.217 40.4398C394.271 41.3884 395.554 41.8627 397.064 41.8627C399.313 41.8627 400.876 40.9141 401.754 39.017H411.346C410.854 40.9493 409.958 42.6883 408.658 44.2341C407.393 45.78 405.795 46.992 403.862 47.8704C401.93 48.7487 399.769 49.1878 397.38 49.1878C394.5 49.1878 391.935 48.573 389.686 47.3434C387.438 46.1137 385.681 44.3571 384.417 42.0735C383.152 39.7899 382.519 37.1198 382.519 34.0633C382.519 31.0068 383.134 28.3367 384.364 26.0531C385.629 23.7695 387.385 22.0129 389.634 20.7832C391.882 19.5536 394.464 18.9388 397.38 18.9388C400.226 18.9388 402.756 19.536 404.969 20.7305C407.182 21.925 408.904 23.629 410.134 25.8423C411.398 28.0557 412.031 30.6379 412.031 33.589ZM402.808 31.2176C402.808 29.6718 402.281 28.4421 401.227 27.5287C400.174 26.6152 398.856 26.1585 397.275 26.1585C395.764 26.1585 394.482 26.5977 393.428 27.476C392.409 28.3543 391.777 29.6015 391.531 31.2176H402.808ZM428.747 49.1878C426.183 49.1878 423.899 48.7487 421.896 47.8704C419.894 46.992 418.313 45.7975 417.154 44.2868C415.994 42.741 415.344 41.0195 415.204 39.1224H424.11C424.215 40.1412 424.69 40.9668 425.533 41.5992C426.376 42.2316 427.412 42.5478 428.642 42.5478C429.766 42.5478 430.627 42.337 431.224 41.9154C431.857 41.4587 432.173 40.879 432.173 40.1764C432.173 39.3332 431.734 38.7184 430.855 38.3319C429.977 37.9103 428.554 37.4536 426.587 36.9617C424.479 36.4699 422.722 35.9605 421.317 35.4335C419.912 34.8714 418.699 34.0106 417.681 32.8512C416.662 31.6567 416.152 30.0582 416.152 28.0557C416.152 26.3693 416.609 24.841 417.522 23.4709C418.471 22.0656 419.841 20.9589 421.633 20.1509C423.46 19.3428 425.621 18.9388 428.115 18.9388C431.804 18.9388 434.702 19.8522 436.81 21.6791C438.953 23.506 440.183 25.9301 440.499 28.9515H432.173C432.032 27.9327 431.575 27.1246 430.803 26.5274C430.065 25.9301 429.081 25.6315 427.851 25.6315C426.797 25.6315 425.989 25.8423 425.427 26.2639C424.865 26.6504 424.584 27.1949 424.584 27.8976C424.584 28.7407 425.023 29.3731 425.902 29.7947C426.815 30.2163 428.22 30.6379 430.117 31.0595C432.296 31.6216 434.07 32.1837 435.44 32.7458C436.81 33.2728 438.005 34.1511 439.024 35.3808C440.078 36.5753 440.622 38.1914 440.657 40.2291C440.657 41.9505 440.165 43.4964 439.182 44.8665C438.233 46.2016 436.845 47.2555 435.018 48.0285C433.227 48.8014 431.136 49.1878 428.747 49.1878Z" fill="white"/>
<path fill-rule="evenodd" clip-rule="evenodd" d="M45.1502 10.1201H58.0323V48.7663H45.1502H32.2681V29.9422H42.019V31.4943C42.9974 31.5343 43.7161 31.7639 44.1754 32.1832C44.6346 32.5825 44.8642 33.1216 44.8642 33.8004C44.8642 34.3395 44.7644 35.4077 44.5647 37.005C44.5447 37.1648 44.4848 37.6839 44.385 38.5624C44.2852 39.421 44.2353 40.1997 44.2353 40.8985C44.2353 42.6156 44.7544 43.9434 45.7926 44.8818C46.8309 45.8402 48.2186 46.3194 49.9556 46.3194H52.112V42.1264H50.944C50.305 42.1264 49.8458 41.9767 49.5663 41.6772C49.2868 41.3976 49.147 40.9684 49.147 40.3893C49.147 39.9301 49.2269 38.9418 49.3866 37.4243C49.5663 35.4876 49.6561 34.2197 49.6561 33.6207C49.6561 32.5026 49.3866 31.5942 48.8475 30.8953C48.3284 30.1765 47.5297 29.7073 46.4515 29.4877V29.4278C47.5297 29.2281 48.3284 28.7689 48.8475 28.0501C49.3866 27.3313 49.6561 26.4229 49.6561 25.3247C49.6561 24.7257 49.5663 23.4579 49.3866 21.5211C49.2269 19.9637 49.147 18.9654 49.147 18.5262C49.147 17.9471 49.2868 17.5179 49.5663 17.2383C49.8458 16.9588 50.305 16.819 50.944 16.819H52.112V12.6261H49.9556C48.2186 12.6261 46.8309 13.1053 45.7926 14.0637C45.5502 14.2828 45.336 14.5226 45.1502 14.7832V10.1201Z" fill="white"/>
</g>
<defs>
<clipPath id="clip0_130_47">
<rect width="481" height="65" fill="white"/>
</clipPath>
</defs>
</svg>
